<svg width="1112" height="172" viewBox="0 0 1112 172" fill="none" xmlns="http://www.w3.org/2000/svg">
<rect x="1" y="1" width="1110" height="45" fill="#2BA7E2"/>
<path d="M484.161 31H482.658V19.4688H478.615V18.1504H488.186V19.4688H484.161V31ZM493.512 21.209C494.661 21.209 495.513 21.4668 496.07 21.9824C496.626 22.498 496.905 23.3213 496.905 24.4521V31H495.841L495.56 29.5762H495.49C495.22 29.9277 494.939 30.2236 494.646 30.4639C494.353 30.6982 494.013 30.877 493.626 31C493.246 31.1172 492.777 31.1758 492.22 31.1758C491.634 31.1758 491.113 31.0732 490.656 30.8682C490.205 30.6631 489.847 30.3525 489.583 29.9365C489.326 29.5205 489.197 28.9932 489.197 28.3545C489.197 27.3936 489.578 26.6553 490.339 26.1396C491.101 25.624 492.261 25.3428 493.82 25.2959L495.481 25.2256V24.6367C495.481 23.8047 495.302 23.2217 494.945 22.8877C494.587 22.5537 494.083 22.3867 493.433 22.3867C492.929 22.3867 492.449 22.46 491.992 22.6064C491.535 22.7529 491.101 22.9258 490.691 23.125L490.243 22.0176C490.676 21.7949 491.174 21.6045 491.737 21.4463C492.299 21.2881 492.891 21.209 493.512 21.209ZM495.463 26.2539L493.996 26.3154C492.794 26.3623 491.948 26.5586 491.456 26.9043C490.963 27.25 490.717 27.7393 490.717 28.3721C490.717 28.9229 490.884 29.3301 491.218 29.5938C491.552 29.8574 491.995 29.9893 492.545 29.9893C493.401 29.9893 494.101 29.752 494.646 29.2773C495.191 28.8027 495.463 28.0908 495.463 27.1416V26.2539ZM501.37 17.3242V21.4111C501.37 21.6455 501.364 21.8828 501.352 22.123C501.34 22.3574 501.32 22.5742 501.29 22.7734H501.387C501.586 22.4336 501.838 22.1494 502.143 21.9209C502.454 21.6865 502.805 21.5107 503.198 21.3936C503.59 21.2705 504.006 21.209 504.446 21.209C505.219 21.209 505.864 21.332 506.379 21.5781C506.901 21.8242 507.29 22.2051 507.548 22.7207C507.812 23.2363 507.944 23.9043 507.944 24.7246V31H506.502V24.8213C506.502 24.0186 506.318 23.418 505.949 23.0195C505.585 22.6211 505.026 22.4219 504.27 22.4219C503.555 22.4219 502.984 22.5596 502.556 22.835C502.134 23.1045 501.83 23.5029 501.642 24.0303C501.46 24.5576 501.37 25.2021 501.37 25.9639V31H499.911V17.3242H501.37ZM518.904 21.3672V31H517.708L517.498 29.6465H517.418C517.219 29.9805 516.961 30.2617 516.645 30.4902C516.329 30.7188 515.971 30.8887 515.573 31C515.18 31.1172 514.761 31.1758 514.316 31.1758C513.554 31.1758 512.915 31.0527 512.4 30.8066C511.884 30.5605 511.495 30.1797 511.231 29.6641C510.973 29.1484 510.844 28.4863 510.844 27.6777V21.3672H512.321V27.5723C512.321 28.375 512.502 28.9756 512.866 29.374C513.229 29.7666 513.783 29.9629 514.527 29.9629C515.242 29.9629 515.81 29.8281 516.232 29.5586C516.66 29.2891 516.967 28.8936 517.155 28.3721C517.342 27.8447 517.436 27.2002 517.436 26.4385V21.3672H518.904ZM526.55 21.1914C527.693 21.1914 528.557 21.4727 529.143 22.0352C529.729 22.5918 530.022 23.4883 530.022 24.7246V31H528.581V24.8213C528.581 24.0186 528.396 23.418 528.027 23.0195C527.664 22.6211 527.104 22.4219 526.348 22.4219C525.282 22.4219 524.532 22.7236 524.098 23.3271C523.665 23.9307 523.448 24.8066 523.448 25.9551V31H521.989V21.3672H523.166L523.386 22.7559H523.465C523.67 22.416 523.931 22.1318 524.248 21.9033C524.564 21.6689 524.918 21.4932 525.311 21.376C525.704 21.2529 526.117 21.1914 526.55 21.1914ZM545.473 31H537.053V29.7783L540.49 26.2891C541.128 25.6445 541.665 25.0703 542.098 24.5664C542.538 24.0625 542.872 23.5674 543.1 23.0811C543.329 22.5889 543.443 22.0498 543.443 21.4639C543.443 20.7373 543.226 20.1836 542.792 19.8027C542.365 19.416 541.799 19.2227 541.096 19.2227C540.481 19.2227 539.936 19.3281 539.461 19.5391C538.987 19.75 538.5 20.0488 538.002 20.4355L537.22 19.4512C537.56 19.1641 537.929 18.9092 538.328 18.6865C538.732 18.4639 539.163 18.2881 539.62 18.1592C540.082 18.0303 540.575 17.9658 541.096 17.9658C541.887 17.9658 542.57 18.1035 543.144 18.3789C543.718 18.6543 544.161 19.0469 544.471 19.5566C544.788 20.0664 544.946 20.6729 544.946 21.376C544.946 22.0557 544.811 22.6885 544.541 23.2744C544.272 23.8545 543.894 24.4316 543.408 25.0059C542.921 25.5742 542.353 26.1777 541.703 26.8164L538.908 29.6025V29.6641H545.473V31ZM555.844 24.5576C555.844 25.6006 555.765 26.5322 555.607 27.3525C555.449 28.1729 555.2 28.8672 554.86 29.4355C554.52 30.0039 554.081 30.4375 553.541 30.7363C553.002 31.0293 552.355 31.1758 551.599 31.1758C550.644 31.1758 549.853 30.915 549.226 30.3936C548.605 29.8721 548.139 29.1191 547.829 28.1348C547.524 27.1445 547.372 25.9521 547.372 24.5576C547.372 23.1865 547.509 22.0088 547.785 21.0244C548.066 20.0342 548.517 19.2754 549.138 18.748C549.759 18.2148 550.58 17.9482 551.599 17.9482C552.566 17.9482 553.363 18.2119 553.99 18.7393C554.617 19.2607 555.082 20.0166 555.387 21.0068C555.692 21.9912 555.844 23.1748 555.844 24.5576ZM548.839 24.5576C548.839 25.7529 548.93 26.749 549.112 27.5459C549.293 28.3428 549.586 28.9404 549.991 29.3389C550.401 29.7314 550.937 29.9277 551.599 29.9277C552.261 29.9277 552.794 29.7314 553.199 29.3389C553.609 28.9463 553.905 28.3516 554.086 27.5547C554.274 26.7578 554.368 25.7588 554.368 24.5576C554.368 23.3799 554.277 22.3955 554.095 21.6045C553.914 20.8076 553.621 20.21 553.216 19.8115C552.812 19.4072 552.273 19.2051 551.599 19.2051C550.925 19.2051 550.386 19.4072 549.982 19.8115C549.578 20.21 549.285 20.8076 549.103 21.6045C548.927 22.3955 548.839 23.3799 548.839 24.5576ZM563.086 31H561.663V21.8945C561.663 21.5488 561.663 21.2529 561.663 21.0068C561.668 20.7549 561.674 20.5264 561.68 20.3213C561.692 20.1104 561.707 19.8965 561.724 19.6797C561.542 19.8672 561.373 20.0283 561.214 20.1631C561.056 20.292 560.86 20.4531 560.625 20.6465L559.158 21.8242L558.393 20.8311L561.874 18.1504H563.086V31ZM576.393 23.626C576.393 24.4053 576.337 25.1641 576.226 25.9023C576.121 26.6406 575.936 27.3291 575.672 27.9678C575.415 28.6064 575.063 29.166 574.618 29.6465C574.172 30.127 573.613 30.5049 572.939 30.7803C572.271 31.0498 571.471 31.1846 570.54 31.1846C570.288 31.1846 570 31.167 569.678 31.1318C569.356 31.1025 569.092 31.0586 568.887 31V29.7344C569.104 29.8105 569.359 29.8721 569.652 29.9189C569.945 29.96 570.232 29.9805 570.513 29.9805C571.609 29.9805 572.47 29.7461 573.097 29.2773C573.724 28.8027 574.175 28.1611 574.451 27.3525C574.726 26.5381 574.881 25.624 574.916 24.6104H574.811C574.635 24.8916 574.404 25.1523 574.117 25.3926C573.835 25.627 573.493 25.8174 573.088 25.9639C572.684 26.1045 572.212 26.1748 571.673 26.1748C570.929 26.1748 570.279 26.0225 569.722 25.7178C569.171 25.4131 568.741 24.9707 568.43 24.3906C568.125 23.8105 567.973 23.1104 567.973 22.29C567.973 21.4053 568.14 20.6406 568.474 19.9961C568.814 19.3457 569.289 18.8447 569.898 18.4932C570.507 18.1416 571.225 17.9658 572.051 17.9658C572.684 17.9658 573.264 18.0859 573.791 18.3262C574.319 18.5664 574.776 18.9268 575.163 19.4072C575.555 19.8818 575.857 20.4707 576.068 21.1738C576.285 21.877 576.393 22.6943 576.393 23.626ZM572.051 19.2051C571.272 19.2051 570.639 19.46 570.153 19.9697C569.672 20.4795 569.432 21.2471 569.432 22.2725C569.432 23.1221 569.64 23.793 570.056 24.2852C570.472 24.7773 571.114 25.0234 571.981 25.0234C572.579 25.0234 573.094 24.9033 573.528 24.6631C573.967 24.4229 574.304 24.1182 574.539 23.749C574.779 23.3799 574.899 23.002 574.899 22.6152C574.899 22.2285 574.84 21.8359 574.723 21.4375C574.612 21.0391 574.439 20.6729 574.205 20.3389C573.97 19.999 573.674 19.7266 573.317 19.5215C572.959 19.3105 572.538 19.2051 572.051 19.2051ZM588.452 18.1504L583.67 31H582.229L587.019 18.1504H588.452ZM602.637 31H594.217V29.7783L597.654 26.2891C598.292 25.6445 598.829 25.0703 599.262 24.5664C599.702 24.0625 600.036 23.5674 600.264 23.0811C600.493 22.5889 600.607 22.0498 600.607 21.4639C600.607 20.7373 600.39 20.1836 599.957 19.8027C599.529 19.416 598.963 19.2227 598.26 19.2227C597.645 19.2227 597.1 19.3281 596.625 19.5391C596.151 19.75 595.665 20.0488 595.166 20.4355L594.384 19.4512C594.724 19.1641 595.093 18.9092 595.492 18.6865C595.896 18.4639 596.327 18.2881 596.784 18.1592C597.247 18.0303 597.739 17.9658 598.26 17.9658C599.051 17.9658 599.734 18.1035 600.308 18.3789C600.882 18.6543 601.325 19.0469 601.635 19.5566C601.952 20.0664 602.11 20.6729 602.11 21.376C602.11 22.0557 601.975 22.6885 601.706 23.2744C601.436 23.8545 601.058 24.4316 600.572 25.0059C600.085 25.5742 599.517 26.1777 598.867 26.8164L596.072 29.6025V29.6641H602.637V31ZM613.008 24.5576C613.008 25.6006 612.929 26.5322 612.771 27.3525C612.613 28.1729 612.364 28.8672 612.024 29.4355C611.684 30.0039 611.245 30.4375 610.706 30.7363C610.166 31.0293 609.519 31.1758 608.763 31.1758C607.808 31.1758 607.017 30.915 606.39 30.3936C605.769 29.8721 605.303 29.1191 604.993 28.1348C604.688 27.1445 604.536 25.9521 604.536 24.5576C604.536 23.1865 604.673 22.0088 604.949 21.0244C605.23 20.0342 605.681 19.2754 606.302 18.748C606.923 18.2148 607.744 17.9482 608.763 17.9482C609.73 17.9482 610.527 18.2119 611.154 18.7393C611.781 19.2607 612.247 20.0166 612.551 21.0068C612.856 21.9912 613.008 23.1748 613.008 24.5576ZM606.003 24.5576C606.003 25.7529 606.094 26.749 606.276 27.5459C606.457 28.3428 606.75 28.9404 607.155 29.3389C607.565 29.7314 608.101 29.9277 608.763 29.9277C609.425 29.9277 609.958 29.7314 610.363 29.3389C610.773 28.9463 611.069 28.3516 611.25 27.5547C611.438 26.7578 611.532 25.7588 611.532 24.5576C611.532 23.3799 611.441 22.3955 611.259 21.6045C611.078 20.8076 610.785 20.21 610.38 19.8115C609.976 19.4072 609.437 19.2051 608.763 19.2051C608.089 19.2051 607.55 19.4072 607.146 19.8115C606.742 20.21 606.449 20.8076 606.267 21.6045C606.091 22.3955 606.003 23.3799 606.003 24.5576ZM623.239 31H614.819V29.7783L618.255 26.2891C618.894 25.6445 619.43 25.0703 619.864 24.5664C620.303 24.0625 620.637 23.5674 620.866 23.0811C621.094 22.5889 621.208 22.0498 621.208 21.4639C621.208 20.7373 620.992 20.1836 620.558 19.8027C620.13 19.416 619.565 19.2227 618.862 19.2227C618.247 19.2227 617.702 19.3281 617.227 19.5391C616.752 19.75 616.266 20.0488 615.768 20.4355L614.986 19.4512C615.326 19.1641 615.695 18.9092 616.093 18.6865C616.498 18.4639 616.928 18.2881 617.385 18.1592C617.848 18.0303 618.34 17.9658 618.862 17.9658C619.653 17.9658 620.335 18.1035 620.91 18.3789C621.484 18.6543 621.926 19.0469 622.237 19.5566C622.553 20.0664 622.711 20.6729 622.711 21.376C622.711 22.0557 622.577 22.6885 622.307 23.2744C622.038 23.8545 621.66 24.4316 621.173 25.0059C620.687 25.5742 620.119 26.1777 619.468 26.8164L616.673 29.6025V29.6641H623.239V31ZM633.61 24.5576C633.61 25.6006 633.531 26.5322 633.373 27.3525C633.214 28.1729 632.965 28.8672 632.625 29.4355C632.286 30.0039 631.846 30.4375 631.307 30.7363C630.768 31.0293 630.121 31.1758 629.365 31.1758C628.41 31.1758 627.619 30.915 626.992 30.3936C626.371 29.8721 625.905 29.1191 625.594 28.1348C625.29 27.1445 625.137 25.9521 625.137 24.5576C625.137 23.1865 625.275 22.0088 625.55 21.0244C625.832 20.0342 626.283 19.2754 626.904 18.748C627.525 18.2148 628.345 17.9482 629.365 17.9482C630.332 17.9482 631.128 18.2119 631.755 18.7393C632.382 19.2607 632.848 20.0166 633.153 21.0068C633.457 21.9912 633.61 23.1748 633.61 24.5576ZM626.605 24.5576C626.605 25.7529 626.696 26.749 626.877 27.5459C627.059 28.3428 627.352 28.9404 627.756 29.3389C628.166 29.7314 628.703 29.9277 629.365 29.9277C630.027 29.9277 630.56 29.7314 630.964 29.3389C631.374 28.9463 631.67 28.3516 631.852 27.5547C632.04 26.7578 632.133 25.7588 632.133 24.5576C632.133 23.3799 632.042 22.3955 631.861 21.6045C631.679 20.8076 631.386 20.21 630.982 19.8115C630.578 19.4072 630.039 19.2051 629.365 19.2051C628.691 19.2051 628.152 19.4072 627.748 19.8115C627.343 20.21 627.05 20.8076 626.869 21.6045C626.693 22.3955 626.605 23.3799 626.605 24.5576Z" fill="white"/>
<rect x="1" y="46" width="1110" height="45" fill="white"/>
<rect x="1" y="131" width="1110" height="40" fill="white"/>
<rect x="1" y="91" width="1110" height="40" fill="#B9CAFF"/>
<path d="M69.4011 75H67.6345L63.0027 68.751L61.6316 69.9814V75H60.1375V62.1504H61.6316V68.5576C61.9656 68.1768 62.3083 67.7988 62.6599 67.4238C63.0115 67.043 63.3601 66.6592 63.7058 66.2725L67.4587 62.1504H69.2078L64.0925 67.7227L69.4011 75ZM74.6482 65.1914C75.4685 65.1914 76.1716 65.373 76.7576 65.7363C77.3435 66.0996 77.7917 66.6094 78.1023 67.2656C78.4128 67.916 78.5681 68.6777 78.5681 69.5508V70.4561H71.9148C71.9324 71.5869 72.2136 72.4482 72.7585 73.04C73.3035 73.6318 74.071 73.9277 75.0613 73.9277C75.6707 73.9277 76.2097 73.8721 76.6785 73.7607C77.1472 73.6494 77.6335 73.4854 78.1375 73.2686V74.5518C77.6511 74.7686 77.1677 74.9268 76.6873 75.0264C76.2126 75.126 75.6501 75.1758 74.9998 75.1758C74.074 75.1758 73.2654 74.9883 72.574 74.6133C71.8884 74.2324 71.3552 73.6758 70.9744 72.9434C70.5935 72.2109 70.4031 71.3145 70.4031 70.2539C70.4031 69.2168 70.5759 68.3203 70.9216 67.5645C71.2732 66.8027 71.7654 66.2168 72.3982 65.8066C73.0369 65.3965 73.7869 65.1914 74.6482 65.1914ZM74.6306 66.3867C73.8513 66.3867 73.2302 66.6416 72.7673 67.1514C72.3044 67.6611 72.0291 68.373 71.9412 69.2871H77.0388C77.033 68.7129 76.9421 68.209 76.7664 67.7754C76.5964 67.3359 76.3357 66.9961 75.9841 66.7559C75.6326 66.5098 75.1814 66.3867 74.6306 66.3867ZM82.5144 75H81.0466V61.3242H82.5144V75ZM89.2029 65.209C90.3513 65.209 91.2039 65.4668 91.7605 65.9824C92.3171 66.498 92.5955 67.3213 92.5955 68.4521V75H91.532L91.2507 73.5762H91.1804C90.9109 73.9277 90.6296 74.2236 90.3367 74.4639C90.0437 74.6982 89.7039 74.877 89.3171 75C88.9363 75.1172 88.4675 75.1758 87.9109 75.1758C87.325 75.1758 86.8035 75.0732 86.3464 74.8682C85.8953 74.6631 85.5378 74.3525 85.2742 73.9365C85.0164 73.5205 84.8875 72.9932 84.8875 72.3545C84.8875 71.3936 85.2683 70.6553 86.03 70.1396C86.7917 69.624 87.9519 69.3428 89.5105 69.2959L91.1716 69.2256V68.6367C91.1716 67.8047 90.9929 67.2217 90.6355 66.8877C90.2781 66.5537 89.7742 66.3867 89.1238 66.3867C88.6199 66.3867 88.1394 66.46 87.6824 66.6064C87.2253 66.7529 86.7917 66.9258 86.3816 67.125L85.9333 66.0176C86.3669 65.7949 86.865 65.6045 87.4275 65.4463C87.99 65.2881 88.5818 65.209 89.2029 65.209ZM91.1541 70.2539L89.6863 70.3154C88.4851 70.3623 87.6384 70.5586 87.1462 70.9043C86.6541 71.25 86.408 71.7393 86.408 72.3721C86.408 72.9229 86.575 73.3301 86.9089 73.5938C87.2429 73.8574 87.6853 73.9893 88.2361 73.9893C89.0916 73.9893 89.7917 73.752 90.3367 73.2773C90.8816 72.8027 91.1541 72.0908 91.1541 71.1416V70.2539ZM101.833 72.3633C101.833 72.9785 101.677 73.4971 101.367 73.9189C101.062 74.335 100.623 74.6484 100.049 74.8594C99.4802 75.0703 98.8005 75.1758 98.0095 75.1758C97.3357 75.1758 96.7527 75.123 96.2605 75.0176C95.7683 74.9121 95.3376 74.7627 94.9685 74.5693V73.2246C95.3611 73.418 95.8298 73.5938 96.3748 73.752C96.9197 73.9102 97.4763 73.9893 98.0447 73.9893C98.8767 73.9893 99.4802 73.8545 99.8552 73.585C100.23 73.3154 100.418 72.9492 100.418 72.4863C100.418 72.2227 100.342 71.9912 100.189 71.792C100.043 71.5869 99.7937 71.3906 99.4421 71.2031C99.0906 71.0098 98.6042 70.7988 97.9832 70.5703C97.3679 70.3359 96.8347 70.1045 96.3835 69.876C95.9382 69.6416 95.5925 69.3574 95.3464 69.0234C95.1062 68.6895 94.9861 68.2559 94.9861 67.7227C94.9861 66.9082 95.3142 66.2842 95.9705 65.8506C96.6326 65.4111 97.4998 65.1914 98.572 65.1914C99.1521 65.1914 99.6941 65.25 100.198 65.3672C100.708 65.4785 101.182 65.6309 101.622 65.8242L101.13 66.9932C100.731 66.8232 100.306 66.6797 99.8552 66.5625C99.4041 66.4453 98.9441 66.3867 98.4753 66.3867C97.8015 66.3867 97.283 66.498 96.9197 66.7207C96.5623 66.9434 96.3835 67.248 96.3835 67.6348C96.3835 67.9336 96.4656 68.1797 96.6296 68.373C96.7996 68.5664 97.0691 68.748 97.4382 68.918C97.8074 69.0879 98.2937 69.2871 98.8972 69.5156C99.5007 69.7383 100.022 69.9697 100.462 70.21C100.901 70.4443 101.238 70.7314 101.472 71.0713C101.713 71.4053 101.833 71.8359 101.833 72.3633ZM118.049 62.1504L113.434 75H111.931L107.317 62.1504H108.882L111.887 70.6143C112.01 70.9541 112.119 71.2793 112.213 71.5898C112.312 71.9004 112.4 72.1992 112.476 72.4863C112.552 72.7734 112.62 73.0518 112.678 73.3213C112.737 73.0518 112.804 72.7734 112.881 72.4863C112.957 72.1934 113.045 71.8916 113.144 71.5811C113.244 71.2646 113.355 70.9336 113.478 70.5879L116.467 62.1504H118.049ZM119.815 75V62.1504H121.309V75H119.815ZM124.843 75V62.1504H126.337V75H124.843Z" fill="black"/>
<path d="M211.903 77.3838C211.61 77.3838 211.353 77.3633 211.13 77.3223C210.907 77.2812 210.717 77.2256 210.559 77.1553V75.8809C210.746 75.9395 210.948 75.9834 211.165 76.0127C211.382 76.0479 211.616 76.0654 211.868 76.0654C212.196 76.0654 212.498 76.001 212.773 75.8721C213.049 75.7432 213.269 75.5234 213.433 75.2129C213.597 74.9023 213.679 74.4746 213.679 73.9297V61.1504H215.182V73.8154C215.182 74.6182 215.047 75.2832 214.777 75.8105C214.514 76.3379 214.136 76.7305 213.644 76.9883C213.157 77.252 212.577 77.3838 211.903 77.3838ZM226.326 64.3672V74H225.131L224.92 72.6465H224.841C224.642 72.9805 224.384 73.2617 224.067 73.4902C223.751 73.7188 223.394 73.8887 222.995 74C222.603 74.1172 222.184 74.1758 221.738 74.1758C220.977 74.1758 220.338 74.0527 219.822 73.8066C219.307 73.5605 218.917 73.1797 218.653 72.6641C218.396 72.1484 218.267 71.4863 218.267 70.6777V64.3672H219.743V70.5723C219.743 71.375 219.925 71.9756 220.288 72.374C220.651 72.7666 221.205 72.9629 221.949 72.9629C222.664 72.9629 223.232 72.8281 223.654 72.5586C224.082 72.2891 224.39 71.8936 224.577 71.3721C224.765 70.8447 224.858 70.2002 224.858 69.4385V64.3672H226.326ZM239.87 64.1914C240.931 64.1914 241.73 64.4697 242.27 65.0264C242.809 65.5771 243.078 66.4648 243.078 67.6895V74H241.637V67.7598C241.637 66.9805 241.467 66.3975 241.127 66.0107C240.793 65.6182 240.295 65.4219 239.633 65.4219C238.701 65.4219 238.024 65.6914 237.603 66.2305C237.181 66.7695 236.97 67.5635 236.97 68.6123V74H235.52V67.7598C235.52 67.2383 235.443 66.8047 235.291 66.459C235.145 66.1133 234.922 65.8555 234.623 65.6855C234.33 65.5098 233.958 65.4219 233.507 65.4219C232.868 65.4219 232.355 65.5537 231.969 65.8174C231.582 66.0811 231.301 66.4736 231.125 66.9951C230.955 67.5107 230.87 68.1465 230.87 68.9023V74H229.411V64.3672H230.589L230.809 65.7295H230.888C231.081 65.3955 231.324 65.1143 231.617 64.8857C231.91 64.6572 232.238 64.4844 232.602 64.3672C232.965 64.25 233.352 64.1914 233.762 64.1914C234.494 64.1914 235.106 64.3291 235.599 64.6045C236.097 64.874 236.457 65.2871 236.68 65.8438H236.759C237.075 65.2871 237.509 64.874 238.06 64.6045C238.61 64.3291 239.214 64.1914 239.87 64.1914ZM247.543 74H246.075V60.3242H247.543V74ZM254.231 64.209C255.38 64.209 256.232 64.4668 256.789 64.9824C257.346 65.498 257.624 66.3213 257.624 67.4521V74H256.561L256.279 72.5762H256.209C255.939 72.9277 255.658 73.2236 255.365 73.4639C255.072 73.6982 254.732 73.877 254.346 74C253.965 74.1172 253.496 74.1758 252.939 74.1758C252.354 74.1758 251.832 74.0732 251.375 73.8682C250.924 73.6631 250.566 73.3525 250.303 72.9365C250.045 72.5205 249.916 71.9932 249.916 71.3545C249.916 70.3936 250.297 69.6553 251.059 69.1396C251.82 68.624 252.98 68.3428 254.539 68.2959L256.2 68.2256V67.6367C256.2 66.8047 256.021 66.2217 255.664 65.8877C255.307 65.5537 254.803 65.3867 254.152 65.3867C253.648 65.3867 253.168 65.46 252.711 65.6064C252.254 65.7529 251.82 65.9258 251.41 66.125L250.962 65.0176C251.396 64.7949 251.894 64.6045 252.456 64.4463C253.019 64.2881 253.61 64.209 254.231 64.209ZM256.183 69.2539L254.715 69.3154C253.514 69.3623 252.667 69.5586 252.175 69.9043C251.683 70.25 251.437 70.7393 251.437 71.3721C251.437 71.9229 251.604 72.3301 251.938 72.5938C252.271 72.8574 252.714 72.9893 253.265 72.9893C254.12 72.9893 254.82 72.752 255.365 72.2773C255.91 71.8027 256.183 71.0908 256.183 70.1416V69.2539ZM262.089 60.3242V64.4111C262.089 64.6455 262.083 64.8828 262.071 65.123C262.06 65.3574 262.039 65.5742 262.01 65.7734H262.106C262.306 65.4336 262.558 65.1494 262.862 64.9209C263.173 64.6865 263.524 64.5107 263.917 64.3936C264.31 64.2705 264.726 64.209 265.165 64.209C265.938 64.209 266.583 64.332 267.099 64.5781C267.62 64.8242 268.01 65.2051 268.268 65.7207C268.531 66.2363 268.663 66.9043 268.663 67.7246V74H267.222V67.8213C267.222 67.0186 267.037 66.418 266.668 66.0195C266.305 65.6211 265.745 65.4219 264.989 65.4219C264.274 65.4219 263.703 65.5596 263.275 65.835C262.854 66.1045 262.549 66.5029 262.361 67.0303C262.18 67.5576 262.089 68.2021 262.089 68.9639V74H260.63V60.3242H262.089ZM280.036 61.1504C281.091 61.1504 281.961 61.2822 282.646 61.5459C283.338 61.8037 283.854 62.1992 284.193 62.7324C284.533 63.2656 284.703 63.9453 284.703 64.7715C284.703 65.4512 284.58 66.0195 284.334 66.4766C284.088 66.9277 283.766 67.2939 283.367 67.5752C282.969 67.8564 282.544 68.0732 282.093 68.2256L285.617 74H283.877L280.73 68.6387H278.059V74H276.564V61.1504H280.036ZM279.948 62.4424H278.059V67.373H280.098C281.146 67.373 281.917 67.1592 282.409 66.7314C282.907 66.3037 283.156 65.6738 283.156 64.8418C283.156 63.9688 282.893 63.3506 282.365 62.9873C281.844 62.624 281.038 62.4424 279.948 62.4424ZM295.408 64.3672V74H294.213L294.002 72.6465H293.923C293.724 72.9805 293.466 73.2617 293.149 73.4902C292.833 73.7188 292.476 73.8887 292.077 74C291.685 74.1172 291.266 74.1758 290.82 74.1758C290.059 74.1758 289.42 74.0527 288.904 73.8066C288.389 73.5605 287.999 73.1797 287.735 72.6641C287.478 72.1484 287.349 71.4863 287.349 70.6777V64.3672H288.825V70.5723C288.825 71.375 289.007 71.9756 289.37 72.374C289.733 72.7666 290.287 72.9629 291.031 72.9629C291.746 72.9629 292.314 72.8281 292.736 72.5586C293.164 72.2891 293.472 71.8936 293.659 71.3721C293.847 70.8447 293.94 70.2002 293.94 69.4385V64.3672H295.408ZM308.952 64.1914C310.013 64.1914 310.812 64.4697 311.352 65.0264C311.891 65.5771 312.16 66.4648 312.16 67.6895V74H310.719V67.7598C310.719 66.9805 310.549 66.3975 310.209 66.0107C309.875 65.6182 309.377 65.4219 308.715 65.4219C307.783 65.4219 307.106 65.6914 306.685 66.2305C306.263 66.7695 306.052 67.5635 306.052 68.6123V74H304.602V67.7598C304.602 67.2383 304.525 66.8047 304.373 66.459C304.227 66.1133 304.004 65.8555 303.705 65.6855C303.412 65.5098 303.04 65.4219 302.589 65.4219C301.95 65.4219 301.438 65.5537 301.051 65.8174C300.664 66.0811 300.383 66.4736 300.207 66.9951C300.037 67.5107 299.952 68.1465 299.952 68.9023V74H298.493V64.3672H299.671L299.891 65.7295H299.97C300.163 65.3955 300.406 65.1143 300.699 64.8857C300.992 64.6572 301.32 64.4844 301.684 64.3672C302.047 64.25 302.434 64.1914 302.844 64.1914C303.576 64.1914 304.188 64.3291 304.681 64.6045C305.179 64.874 305.539 65.2871 305.762 65.8438H305.841C306.157 65.2871 306.591 64.874 307.142 64.6045C307.692 64.3291 308.296 64.1914 308.952 64.1914ZM316.616 60.3242V63.7432C316.616 64.1357 316.604 64.5166 316.581 64.8857C316.563 65.2549 316.549 65.542 316.537 65.7471H316.616C316.88 65.3135 317.261 64.9473 317.759 64.6484C318.257 64.3496 318.893 64.2002 319.666 64.2002C320.873 64.2002 321.834 64.6191 322.549 65.457C323.27 66.2891 323.63 67.5283 323.63 69.1748C323.63 70.2588 323.466 71.1729 323.138 71.917C322.81 72.6611 322.347 73.2236 321.749 73.6045C321.151 73.9854 320.445 74.1758 319.631 74.1758C318.869 74.1758 318.242 74.0352 317.75 73.7539C317.264 73.4668 316.889 73.1182 316.625 72.708H316.511L316.212 74H315.157V60.3242H316.616ZM319.429 65.4219C318.731 65.4219 318.178 65.5596 317.768 65.835C317.357 66.1045 317.062 66.5146 316.88 67.0654C316.704 67.6104 316.616 68.3018 316.616 69.1396V69.2188C316.616 70.4316 316.818 71.3604 317.223 72.0049C317.627 72.6436 318.362 72.9629 319.429 72.9629C320.325 72.9629 320.996 72.6348 321.441 71.9785C321.893 71.3223 322.118 70.3848 322.118 69.166C322.118 67.9238 321.896 66.9893 321.45 66.3623C321.011 65.7354 320.337 65.4219 319.429 65.4219ZM329.888 64.1914C330.708 64.1914 331.411 64.373 331.997 64.7363C332.583 65.0996 333.031 65.6094 333.342 66.2656C333.652 66.916 333.808 67.6777 333.808 68.5508V69.4561H327.154C327.172 70.5869 327.453 71.4482 327.998 72.04C328.543 72.6318 329.311 72.9277 330.301 72.9277C330.91 72.9277 331.449 72.8721 331.918 72.7607C332.387 72.6494 332.873 72.4854 333.377 72.2686V73.5518C332.891 73.7686 332.407 73.9268 331.927 74.0264C331.452 74.126 330.89 74.1758 330.239 74.1758C329.313 74.1758 328.505 73.9883 327.813 73.6133C327.128 73.2324 326.595 72.6758 326.214 71.9434C325.833 71.2109 325.643 70.3145 325.643 69.2539C325.643 68.2168 325.815 67.3203 326.161 66.5645C326.513 65.8027 327.005 65.2168 327.638 64.8066C328.276 64.3965 329.026 64.1914 329.888 64.1914ZM329.87 65.3867C329.091 65.3867 328.47 65.6416 328.007 66.1514C327.544 66.6611 327.269 67.373 327.181 68.2871H332.278C332.272 67.7129 332.182 67.209 332.006 66.7754C331.836 66.3359 331.575 65.9961 331.224 65.7559C330.872 65.5098 330.421 65.3867 329.87 65.3867ZM337.754 74H336.286V60.3242H337.754V74Z" fill="black"/>
<path d="M142.115 103.15C143.773 103.15 144.983 103.476 145.745 104.126C146.513 104.771 146.896 105.696 146.896 106.903C146.896 107.448 146.806 107.967 146.624 108.459C146.448 108.945 146.161 109.376 145.763 109.751C145.364 110.12 144.84 110.413 144.189 110.63C143.545 110.841 142.754 110.946 141.816 110.946H140.252V116H138.758V103.15H142.115ZM141.975 104.425H140.252V109.663H141.649C142.47 109.663 143.152 109.575 143.697 109.399C144.248 109.224 144.661 108.939 144.937 108.547C145.212 108.148 145.35 107.621 145.35 106.965C145.35 106.109 145.077 105.474 144.532 105.058C143.987 104.636 143.135 104.425 141.975 104.425Z" fill="black"/>
<path d="M133.319 157H131.896V147.895C131.896 147.549 131.896 147.253 131.896 147.007C131.901 146.755 131.907 146.526 131.913 146.321C131.925 146.11 131.939 145.896 131.957 145.68C131.775 145.867 131.605 146.028 131.447 146.163C131.289 146.292 131.093 146.453 130.858 146.646L129.391 147.824L128.626 146.831L132.106 144.15H133.319V157ZM146.626 149.626C146.626 150.405 146.57 151.164 146.459 151.902C146.354 152.641 146.169 153.329 145.905 153.968C145.647 154.606 145.296 155.166 144.851 155.646C144.405 156.127 143.846 156.505 143.172 156.78C142.504 157.05 141.704 157.185 140.772 157.185C140.521 157.185 140.233 157.167 139.911 157.132C139.589 157.103 139.325 157.059 139.12 157V155.734C139.337 155.811 139.592 155.872 139.885 155.919C140.178 155.96 140.465 155.98 140.746 155.98C141.842 155.98 142.703 155.746 143.33 155.277C143.957 154.803 144.408 154.161 144.684 153.353C144.959 152.538 145.114 151.624 145.149 150.61H145.044C144.868 150.892 144.637 151.152 144.35 151.393C144.068 151.627 143.726 151.817 143.321 151.964C142.917 152.104 142.445 152.175 141.906 152.175C141.162 152.175 140.512 152.022 139.955 151.718C139.404 151.413 138.974 150.971 138.663 150.391C138.358 149.811 138.206 149.11 138.206 148.29C138.206 147.405 138.373 146.641 138.707 145.996C139.047 145.346 139.521 144.845 140.131 144.493C140.74 144.142 141.458 143.966 142.284 143.966C142.917 143.966 143.497 144.086 144.024 144.326C144.552 144.566 145.009 144.927 145.396 145.407C145.788 145.882 146.09 146.471 146.301 147.174C146.518 147.877 146.626 148.694 146.626 149.626ZM142.284 145.205C141.505 145.205 140.872 145.46 140.386 145.97C139.905 146.479 139.665 147.247 139.665 148.272C139.665 149.122 139.873 149.793 140.289 150.285C140.705 150.777 141.347 151.023 142.214 151.023C142.812 151.023 143.327 150.903 143.761 150.663C144.2 150.423 144.537 150.118 144.771 149.749C145.012 149.38 145.132 149.002 145.132 148.615C145.132 148.229 145.073 147.836 144.956 147.438C144.845 147.039 144.672 146.673 144.438 146.339C144.203 145.999 143.907 145.727 143.55 145.521C143.192 145.311 142.771 145.205 142.284 145.205ZM148.621 151.507C148.621 150.733 148.674 149.978 148.779 149.239C148.891 148.501 149.075 147.815 149.333 147.183C149.591 146.544 149.942 145.984 150.388 145.504C150.833 145.023 151.387 144.648 152.049 144.379C152.717 144.104 153.517 143.966 154.448 143.966C154.712 143.966 154.996 143.98 155.301 144.01C155.605 144.033 155.857 144.074 156.057 144.133V145.39C155.84 145.313 155.591 145.258 155.31 145.223C155.034 145.188 154.756 145.17 154.475 145.17C153.385 145.17 152.526 145.407 151.899 145.882C151.278 146.356 150.83 147.001 150.555 147.815C150.279 148.624 150.121 149.535 150.08 150.549H150.177C150.358 150.256 150.59 149.992 150.871 149.758C151.152 149.518 151.492 149.327 151.891 149.187C152.295 149.046 152.764 148.976 153.297 148.976C154.047 148.976 154.7 149.128 155.257 149.433C155.819 149.737 156.253 150.18 156.558 150.76C156.868 151.34 157.023 152.043 157.023 152.869C157.023 153.754 156.859 154.519 156.531 155.163C156.203 155.808 155.734 156.306 155.125 156.657C154.521 157.003 153.801 157.176 152.963 157.176C152.336 157.176 151.759 157.056 151.231 156.815C150.704 156.575 150.244 156.218 149.852 155.743C149.465 155.269 149.163 154.68 148.946 153.977C148.729 153.268 148.621 152.444 148.621 151.507ZM152.945 155.945C153.742 155.945 154.381 155.69 154.861 155.181C155.342 154.671 155.582 153.9 155.582 152.869C155.582 152.025 155.368 151.357 154.94 150.865C154.513 150.373 153.868 150.127 153.007 150.127C152.421 150.127 151.911 150.25 151.478 150.496C151.044 150.736 150.707 151.041 150.467 151.41C150.227 151.779 150.106 152.154 150.106 152.535C150.106 152.922 150.162 153.314 150.273 153.713C150.391 154.111 150.566 154.48 150.801 154.82C151.035 155.16 151.331 155.433 151.688 155.638C152.046 155.843 152.465 155.945 152.945 155.945Z" fill="black"/>
<path d="M279.133 143.966C279.877 143.966 280.536 144.083 281.11 144.317C281.685 144.552 282.133 144.897 282.455 145.354C282.783 145.806 282.947 146.362 282.947 147.024C282.947 147.546 282.833 148.003 282.604 148.396C282.382 148.782 282.08 149.122 281.699 149.415C281.318 149.702 280.896 149.96 280.434 150.188C280.984 150.44 281.479 150.725 281.919 151.041C282.364 151.357 282.716 151.729 282.974 152.157C283.231 152.585 283.36 153.092 283.36 153.678C283.36 154.398 283.185 155.022 282.833 155.55C282.487 156.071 282.001 156.473 281.374 156.754C280.747 157.035 280.012 157.176 279.168 157.176C278.26 157.176 277.486 157.041 276.848 156.771C276.215 156.496 275.731 156.104 275.397 155.594C275.069 155.078 274.905 154.46 274.905 153.739C274.905 153.147 275.031 152.635 275.283 152.201C275.535 151.762 275.869 151.384 276.285 151.067C276.701 150.751 277.155 150.484 277.647 150.268C277.22 150.033 276.827 149.767 276.47 149.468C276.118 149.169 275.837 148.82 275.626 148.422C275.421 148.018 275.318 147.549 275.318 147.016C275.318 146.365 275.482 145.814 275.811 145.363C276.145 144.906 276.599 144.561 277.173 144.326C277.753 144.086 278.406 143.966 279.133 143.966ZM276.338 153.748C276.338 154.404 276.569 154.946 277.032 155.374C277.495 155.796 278.195 156.007 279.133 156.007C280.023 156.007 280.712 155.796 281.198 155.374C281.685 154.946 281.928 154.387 281.928 153.695C281.928 153.268 281.816 152.893 281.594 152.57C281.371 152.242 281.055 151.949 280.645 151.691C280.234 151.434 279.751 151.199 279.194 150.988L278.878 150.874C278.339 151.097 277.879 151.346 277.498 151.621C277.123 151.891 276.836 152.198 276.637 152.544C276.438 152.89 276.338 153.291 276.338 153.748ZM279.115 145.161C278.424 145.161 277.858 145.328 277.419 145.662C276.979 145.99 276.76 146.465 276.76 147.086C276.76 147.531 276.865 147.909 277.076 148.22C277.293 148.524 277.586 148.788 277.955 149.011C278.324 149.228 278.737 149.43 279.194 149.617C279.64 149.43 280.035 149.225 280.381 149.002C280.727 148.773 280.999 148.504 281.198 148.193C281.397 147.883 281.497 147.511 281.497 147.077C281.497 146.456 281.277 145.981 280.838 145.653C280.404 145.325 279.83 145.161 279.115 145.161Z" fill="black"/>
<path d="M46.7578 116V103.15H48.252V114.664H53.9561V116H46.7578Z" fill="black"/>
<path d="M40.3193 157H38.8955V147.895C38.8955 147.549 38.8955 147.253 38.8955 147.007C38.9014 146.755 38.9072 146.526 38.9131 146.321C38.9248 146.11 38.9395 145.896 38.957 145.68C38.7754 145.867 38.6055 146.028 38.4473 146.163C38.2891 146.292 38.0928 146.453 37.8584 146.646L36.3906 147.824L35.626 146.831L39.1064 144.15H40.3193V157ZM54.25 154.021H52.3252V157H50.9014V154.021H44.6875V152.79L50.8047 144.08H52.3252V152.702H54.25V154.021ZM50.9014 152.702V148.501C50.9014 148.179 50.9043 147.889 50.9102 147.631C50.916 147.367 50.9248 147.124 50.9365 146.901C50.9482 146.673 50.957 146.456 50.9629 146.251C50.9746 146.046 50.9834 145.844 50.9893 145.645H50.9189C50.8076 145.879 50.6787 146.128 50.5322 146.392C50.3916 146.649 50.248 146.881 50.1016 147.086L46.1377 152.702H50.9014ZM63.9795 150.558C63.9795 151.601 63.9004 152.532 63.7422 153.353C63.584 154.173 63.335 154.867 62.9951 155.436C62.6553 156.004 62.2158 156.438 61.6768 156.736C61.1377 157.029 60.4902 157.176 59.7344 157.176C58.7793 157.176 57.9883 156.915 57.3613 156.394C56.7402 155.872 56.2744 155.119 55.9639 154.135C55.6592 153.145 55.5068 151.952 55.5068 150.558C55.5068 149.187 55.6445 148.009 55.9199 147.024C56.2012 146.034 56.6523 145.275 57.2734 144.748C57.8945 144.215 58.7148 143.948 59.7344 143.948C60.7012 143.948 61.498 144.212 62.125 144.739C62.752 145.261 63.2178 146.017 63.5225 147.007C63.8271 147.991 63.9795 149.175 63.9795 150.558ZM56.9746 150.558C56.9746 151.753 57.0654 152.749 57.2471 153.546C57.4287 154.343 57.7217 154.94 58.126 155.339C58.5361 155.731 59.0723 155.928 59.7344 155.928C60.3965 155.928 60.9297 155.731 61.334 155.339C61.7441 154.946 62.04 154.352 62.2217 153.555C62.4092 152.758 62.5029 151.759 62.5029 150.558C62.5029 149.38 62.4121 148.396 62.2305 147.604C62.0488 146.808 61.7559 146.21 61.3516 145.812C60.9473 145.407 60.4082 145.205 59.7344 145.205C59.0605 145.205 58.5215 145.407 58.1172 145.812C57.7129 146.21 57.4199 146.808 57.2383 147.604C57.0625 148.396 56.9746 149.38 56.9746 150.558Z" fill="black"/>
<path d="M1.98926 131L186.989 131" stroke="#DFDFDF" stroke-width="1.66667" stroke-linecap="square" stroke-linejoin="round"/>
<path d="M98 92V171" stroke="#DFDFDF" stroke-width="1.66667" stroke-linecap="square" stroke-linejoin="round"/>
<path d="M187 46L187 170" stroke="#DFDFDF" stroke-width="1.66667" stroke-linecap="square" stroke-linejoin="round"/>
<path d="M439.401 75H437.635L433.003 68.751L431.632 69.9814V75H430.138V62.1504H431.632V68.5576C431.966 68.1768 432.308 67.7988 432.66 67.4238C433.012 67.043 433.36 66.6592 433.706 66.2725L437.459 62.1504H439.208L434.093 67.7227L439.401 75ZM444.648 65.1914C445.469 65.1914 446.172 65.373 446.758 65.7363C447.344 66.0996 447.792 66.6094 448.102 67.2656C448.413 67.916 448.568 68.6777 448.568 69.5508V70.4561H441.915C441.932 71.5869 442.214 72.4482 442.759 73.04C443.304 73.6318 444.071 73.9277 445.061 73.9277C445.671 73.9277 446.21 73.8721 446.679 73.7607C447.147 73.6494 447.634 73.4854 448.138 73.2686V74.5518C447.651 74.7686 447.168 74.9268 446.687 75.0264C446.213 75.126 445.65 75.1758 445 75.1758C444.074 75.1758 443.266 74.9883 442.574 74.6133C441.889 74.2324 441.355 73.6758 440.974 72.9434C440.594 72.2109 440.403 71.3145 440.403 70.2539C440.403 69.2168 440.576 68.3203 440.922 67.5645C441.273 66.8027 441.766 66.2168 442.398 65.8066C443.037 65.3965 443.787 65.1914 444.648 65.1914ZM444.631 66.3867C443.851 66.3867 443.23 66.6416 442.767 67.1514C442.305 67.6611 442.029 68.373 441.941 69.2871H447.039C447.033 68.7129 446.942 68.209 446.766 67.7754C446.597 67.3359 446.336 66.9961 445.984 66.7559C445.633 66.5098 445.182 66.3867 444.631 66.3867ZM452.515 75H451.047V61.3242H452.515V75ZM459.203 65.209C460.351 65.209 461.204 65.4668 461.761 65.9824C462.317 66.498 462.596 67.3213 462.596 68.4521V75H461.532L461.251 73.5762H461.181C460.911 73.9277 460.63 74.2236 460.337 74.4639C460.044 74.6982 459.704 74.877 459.317 75C458.936 75.1172 458.468 75.1758 457.911 75.1758C457.325 75.1758 456.804 75.0732 456.347 74.8682C455.895 74.6631 455.538 74.3525 455.274 73.9365C455.016 73.5205 454.888 72.9932 454.888 72.3545C454.888 71.3936 455.268 70.6553 456.03 70.1396C456.792 69.624 457.952 69.3428 459.511 69.2959L461.172 69.2256V68.6367C461.172 67.8047 460.993 67.2217 460.636 66.8877C460.278 66.5537 459.774 66.3867 459.124 66.3867C458.62 66.3867 458.14 66.46 457.682 66.6064C457.225 66.7529 456.792 66.9258 456.382 67.125L455.933 66.0176C456.367 65.7949 456.865 65.6045 457.428 65.4463C457.99 65.2881 458.582 65.209 459.203 65.209ZM461.154 70.2539L459.686 70.3154C458.485 70.3623 457.639 70.5586 457.146 70.9043C456.654 71.25 456.408 71.7393 456.408 72.3721C456.408 72.9229 456.575 73.3301 456.909 73.5938C457.243 73.8574 457.685 73.9893 458.236 73.9893C459.092 73.9893 459.792 73.752 460.337 73.2773C460.882 72.8027 461.154 72.0908 461.154 71.1416V70.2539ZM471.833 72.3633C471.833 72.9785 471.678 73.4971 471.367 73.9189C471.062 74.335 470.623 74.6484 470.049 74.8594C469.48 75.0703 468.801 75.1758 468.01 75.1758C467.336 75.1758 466.753 75.123 466.261 75.0176C465.768 74.9121 465.338 74.7627 464.969 74.5693V73.2246C465.361 73.418 465.83 73.5938 466.375 73.752C466.92 73.9102 467.476 73.9893 468.045 73.9893C468.877 73.9893 469.48 73.8545 469.855 73.585C470.23 73.3154 470.418 72.9492 470.418 72.4863C470.418 72.2227 470.342 71.9912 470.189 71.792C470.043 71.5869 469.794 71.3906 469.442 71.2031C469.091 71.0098 468.604 70.7988 467.983 70.5703C467.368 70.3359 466.835 70.1045 466.384 69.876C465.938 69.6416 465.593 69.3574 465.347 69.0234C465.106 68.6895 464.986 68.2559 464.986 67.7227C464.986 66.9082 465.314 66.2842 465.971 65.8506C466.633 65.4111 467.5 65.1914 468.572 65.1914C469.152 65.1914 469.694 65.25 470.198 65.3672C470.708 65.4785 471.182 65.6309 471.622 65.8242L471.13 66.9932C470.731 66.8232 470.307 66.6797 469.855 66.5625C469.404 66.4453 468.944 66.3867 468.475 66.3867C467.802 66.3867 467.283 66.498 466.92 66.7207C466.562 66.9434 466.384 67.248 466.384 67.6348C466.384 67.9336 466.466 68.1797 466.63 68.373C466.8 68.5664 467.069 68.748 467.438 68.918C467.807 69.0879 468.294 69.2871 468.897 69.5156C469.501 69.7383 470.022 69.9697 470.462 70.21C470.901 70.4443 471.238 70.7314 471.473 71.0713C471.713 71.4053 471.833 71.8359 471.833 72.3633ZM488.049 62.1504L483.434 75H481.932L477.317 62.1504H478.882L481.888 70.6143C482.011 70.9541 482.119 71.2793 482.213 71.5898C482.312 71.9004 482.4 72.1992 482.476 72.4863C482.553 72.7734 482.62 73.0518 482.679 73.3213C482.737 73.0518 482.805 72.7734 482.881 72.4863C482.957 72.1934 483.045 71.8916 483.144 71.5811C483.244 71.2646 483.355 70.9336 483.478 70.5879L486.467 62.1504H488.049ZM489.815 75V62.1504H491.309V75H489.815ZM494.843 75V62.1504H496.337V75H494.843ZM499.87 75V62.1504H501.364V75H499.87Z" fill="black"/>
<path d="M582.903 77.3838C582.61 77.3838 582.353 77.3633 582.13 77.3223C581.907 77.2812 581.717 77.2256 581.559 77.1553V75.8809C581.746 75.9395 581.948 75.9834 582.165 76.0127C582.382 76.0479 582.616 76.0654 582.868 76.0654C583.196 76.0654 583.498 76.001 583.773 75.8721C584.049 75.7432 584.269 75.5234 584.433 75.2129C584.597 74.9023 584.679 74.4746 584.679 73.9297V61.1504H586.182V73.8154C586.182 74.6182 586.047 75.2832 585.777 75.8105C585.514 76.3379 585.136 76.7305 584.644 76.9883C584.157 77.252 583.577 77.3838 582.903 77.3838ZM597.326 64.3672V74H596.131L595.92 72.6465H595.841C595.642 72.9805 595.384 73.2617 595.067 73.4902C594.751 73.7188 594.394 73.8887 593.995 74C593.603 74.1172 593.184 74.1758 592.738 74.1758C591.977 74.1758 591.338 74.0527 590.822 73.8066C590.307 73.5605 589.917 73.1797 589.653 72.6641C589.396 72.1484 589.267 71.4863 589.267 70.6777V64.3672H590.743V70.5723C590.743 71.375 590.925 71.9756 591.288 72.374C591.651 72.7666 592.205 72.9629 592.949 72.9629C593.664 72.9629 594.232 72.8281 594.654 72.5586C595.082 72.2891 595.39 71.8936 595.577 71.3721C595.765 70.8447 595.858 70.2002 595.858 69.4385V64.3672H597.326ZM610.87 64.1914C611.931 64.1914 612.73 64.4697 613.27 65.0264C613.809 65.5771 614.078 66.4648 614.078 67.6895V74H612.637V67.7598C612.637 66.9805 612.467 66.3975 612.127 66.0107C611.793 65.6182 611.295 65.4219 610.633 65.4219C609.701 65.4219 609.024 65.6914 608.603 66.2305C608.181 66.7695 607.97 67.5635 607.97 68.6123V74H606.52V67.7598C606.52 67.2383 606.443 66.8047 606.291 66.459C606.145 66.1133 605.922 65.8555 605.623 65.6855C605.33 65.5098 604.958 65.4219 604.507 65.4219C603.868 65.4219 603.355 65.5537 602.969 65.8174C602.582 66.0811 602.301 66.4736 602.125 66.9951C601.955 67.5107 601.87 68.1465 601.87 68.9023V74H600.411V64.3672H601.589L601.809 65.7295H601.888C602.081 65.3955 602.324 65.1143 602.617 64.8857C602.91 64.6572 603.238 64.4844 603.602 64.3672C603.965 64.25 604.352 64.1914 604.762 64.1914C605.494 64.1914 606.106 64.3291 606.599 64.6045C607.097 64.874 607.457 65.2871 607.68 65.8438H607.759C608.075 65.2871 608.509 64.874 609.06 64.6045C609.61 64.3291 610.214 64.1914 610.87 64.1914ZM618.543 74H617.075V60.3242H618.543V74ZM625.231 64.209C626.38 64.209 627.232 64.4668 627.789 64.9824C628.346 65.498 628.624 66.3213 628.624 67.4521V74H627.561L627.279 72.5762H627.209C626.939 72.9277 626.658 73.2236 626.365 73.4639C626.072 73.6982 625.732 73.877 625.346 74C624.965 74.1172 624.496 74.1758 623.939 74.1758C623.354 74.1758 622.832 74.0732 622.375 73.8682C621.924 73.6631 621.566 73.3525 621.303 72.9365C621.045 72.5205 620.916 71.9932 620.916 71.3545C620.916 70.3936 621.297 69.6553 622.059 69.1396C622.82 68.624 623.98 68.3428 625.539 68.2959L627.2 68.2256V67.6367C627.2 66.8047 627.021 66.2217 626.664 65.8877C626.307 65.5537 625.803 65.3867 625.152 65.3867C624.648 65.3867 624.168 65.46 623.711 65.6064C623.254 65.7529 622.82 65.9258 622.41 66.125L621.962 65.0176C622.396 64.7949 622.894 64.6045 623.456 64.4463C624.019 64.2881 624.61 64.209 625.231 64.209ZM627.183 69.2539L625.715 69.3154C624.514 69.3623 623.667 69.5586 623.175 69.9043C622.683 70.25 622.437 70.7393 622.437 71.3721C622.437 71.9229 622.604 72.3301 622.938 72.5938C623.271 72.8574 623.714 72.9893 624.265 72.9893C625.12 72.9893 625.82 72.752 626.365 72.2773C626.91 71.8027 627.183 71.0908 627.183 70.1416V69.2539ZM633.089 60.3242V64.4111C633.089 64.6455 633.083 64.8828 633.071 65.123C633.06 65.3574 633.039 65.5742 633.01 65.7734H633.106C633.306 65.4336 633.558 65.1494 633.862 64.9209C634.173 64.6865 634.524 64.5107 634.917 64.3936C635.31 64.2705 635.726 64.209 636.165 64.209C636.938 64.209 637.583 64.332 638.099 64.5781C638.62 64.8242 639.01 65.2051 639.268 65.7207C639.531 66.2363 639.663 66.9043 639.663 67.7246V74H638.222V67.8213C638.222 67.0186 638.037 66.418 637.668 66.0195C637.305 65.6211 636.745 65.4219 635.989 65.4219C635.274 65.4219 634.703 65.5596 634.275 65.835C633.854 66.1045 633.549 66.5029 633.361 67.0303C633.18 67.5576 633.089 68.2021 633.089 68.9639V74H631.63V60.3242H633.089ZM651.036 61.1504C652.091 61.1504 652.961 61.2822 653.646 61.5459C654.338 61.8037 654.854 62.1992 655.193 62.7324C655.533 63.2656 655.703 63.9453 655.703 64.7715C655.703 65.4512 655.58 66.0195 655.334 66.4766C655.088 66.9277 654.766 67.2939 654.367 67.5752C653.969 67.8564 653.544 68.0732 653.093 68.2256L656.617 74H654.877L651.73 68.6387H649.059V74H647.564V61.1504H651.036ZM650.948 62.4424H649.059V67.373H651.098C652.146 67.373 652.917 67.1592 653.409 66.7314C653.907 66.3037 654.156 65.6738 654.156 64.8418C654.156 63.9688 653.893 63.3506 653.365 62.9873C652.844 62.624 652.038 62.4424 650.948 62.4424ZM666.408 64.3672V74H665.213L665.002 72.6465H664.923C664.724 72.9805 664.466 73.2617 664.149 73.4902C663.833 73.7188 663.476 73.8887 663.077 74C662.685 74.1172 662.266 74.1758 661.82 74.1758C661.059 74.1758 660.42 74.0527 659.904 73.8066C659.389 73.5605 658.999 73.1797 658.735 72.6641C658.478 72.1484 658.349 71.4863 658.349 70.6777V64.3672H659.825V70.5723C659.825 71.375 660.007 71.9756 660.37 72.374C660.733 72.7666 661.287 72.9629 662.031 72.9629C662.746 72.9629 663.314 72.8281 663.736 72.5586C664.164 72.2891 664.472 71.8936 664.659 71.3721C664.847 70.8447 664.94 70.2002 664.94 69.4385V64.3672H666.408ZM679.952 64.1914C681.013 64.1914 681.812 64.4697 682.352 65.0264C682.891 65.5771 683.16 66.4648 683.16 67.6895V74H681.719V67.7598C681.719 66.9805 681.549 66.3975 681.209 66.0107C680.875 65.6182 680.377 65.4219 679.715 65.4219C678.783 65.4219 678.106 65.6914 677.685 66.2305C677.263 66.7695 677.052 67.5635 677.052 68.6123V74H675.602V67.7598C675.602 67.2383 675.525 66.8047 675.373 66.459C675.227 66.1133 675.004 65.8555 674.705 65.6855C674.412 65.5098 674.04 65.4219 673.589 65.4219C672.95 65.4219 672.438 65.5537 672.051 65.8174C671.664 66.0811 671.383 66.4736 671.207 66.9951C671.037 67.5107 670.952 68.1465 670.952 68.9023V74H669.493V64.3672H670.671L670.891 65.7295H670.97C671.163 65.3955 671.406 65.1143 671.699 64.8857C671.992 64.6572 672.32 64.4844 672.684 64.3672C673.047 64.25 673.434 64.1914 673.844 64.1914C674.576 64.1914 675.188 64.3291 675.681 64.6045C676.179 64.874 676.539 65.2871 676.762 65.8438H676.841C677.157 65.2871 677.591 64.874 678.142 64.6045C678.692 64.3291 679.296 64.1914 679.952 64.1914ZM687.616 60.3242V63.7432C687.616 64.1357 687.604 64.5166 687.581 64.8857C687.563 65.2549 687.549 65.542 687.537 65.7471H687.616C687.88 65.3135 688.261 64.9473 688.759 64.6484C689.257 64.3496 689.893 64.2002 690.666 64.2002C691.873 64.2002 692.834 64.6191 693.549 65.457C694.27 66.2891 694.63 67.5283 694.63 69.1748C694.63 70.2588 694.466 71.1729 694.138 71.917C693.81 72.6611 693.347 73.2236 692.749 73.6045C692.151 73.9854 691.445 74.1758 690.631 74.1758C689.869 74.1758 689.242 74.0352 688.75 73.7539C688.264 73.4668 687.889 73.1182 687.625 72.708H687.511L687.212 74H686.157V60.3242H687.616ZM690.429 65.4219C689.731 65.4219 689.178 65.5596 688.768 65.835C688.357 66.1045 688.062 66.5146 687.88 67.0654C687.704 67.6104 687.616 68.3018 687.616 69.1396V69.2188C687.616 70.4316 687.818 71.3604 688.223 72.0049C688.627 72.6436 689.362 72.9629 690.429 72.9629C691.325 72.9629 691.996 72.6348 692.441 71.9785C692.893 71.3223 693.118 70.3848 693.118 69.166C693.118 67.9238 692.896 66.9893 692.45 66.3623C692.011 65.7354 691.337 65.4219 690.429 65.4219ZM700.888 64.1914C701.708 64.1914 702.411 64.373 702.997 64.7363C703.583 65.0996 704.031 65.6094 704.342 66.2656C704.652 66.916 704.808 67.6777 704.808 68.5508V69.4561H698.154C698.172 70.5869 698.453 71.4482 698.998 72.04C699.543 72.6318 700.311 72.9277 701.301 72.9277C701.91 72.9277 702.449 72.8721 702.918 72.7607C703.387 72.6494 703.873 72.4854 704.377 72.2686V73.5518C703.891 73.7686 703.407 73.9268 702.927 74.0264C702.452 74.126 701.89 74.1758 701.239 74.1758C700.313 74.1758 699.505 73.9883 698.813 73.6133C698.128 73.2324 697.595 72.6758 697.214 71.9434C696.833 71.2109 696.643 70.3145 696.643 69.2539C696.643 68.2168 696.815 67.3203 697.161 66.5645C697.513 65.8027 698.005 65.2168 698.638 64.8066C699.276 64.3965 700.026 64.1914 700.888 64.1914ZM700.87 65.3867C700.091 65.3867 699.47 65.6416 699.007 66.1514C698.544 66.6611 698.269 67.373 698.181 68.2871H703.278C703.272 67.7129 703.182 67.209 703.006 66.7754C702.836 66.3359 702.575 65.9961 702.224 65.7559C701.872 65.5098 701.421 65.3867 700.87 65.3867ZM708.754 74H707.286V60.3242H708.754V74Z" fill="black"/>
<path d="M512.115 103.15C513.773 103.15 514.983 103.476 515.745 104.126C516.513 104.771 516.896 105.696 516.896 106.903C516.896 107.448 516.806 107.967 516.624 108.459C516.448 108.945 516.161 109.376 515.763 109.751C515.364 110.12 514.84 110.413 514.189 110.63C513.545 110.841 512.754 110.946 511.816 110.946H510.252V116H508.758V103.15H512.115ZM511.975 104.425H510.252V109.663H511.649C512.47 109.663 513.152 109.575 513.697 109.399C514.248 109.224 514.661 108.939 514.937 108.547C515.212 108.148 515.35 107.621 515.35 106.965C515.35 106.109 515.077 105.474 514.532 105.058C513.987 104.636 513.135 104.425 511.975 104.425Z" fill="black"/>
<path d="M503.319 157H501.896V147.895C501.896 147.549 501.896 147.253 501.896 147.007C501.901 146.755 501.907 146.526 501.913 146.321C501.925 146.11 501.939 145.896 501.957 145.68C501.775 145.867 501.605 146.028 501.447 146.163C501.289 146.292 501.093 146.453 500.858 146.646L499.391 147.824L498.626 146.831L502.106 144.15H503.319V157ZM516.626 149.626C516.626 150.405 516.57 151.164 516.459 151.902C516.354 152.641 516.169 153.329 515.905 153.968C515.647 154.606 515.296 155.166 514.851 155.646C514.405 156.127 513.846 156.505 513.172 156.78C512.504 157.05 511.704 157.185 510.772 157.185C510.521 157.185 510.233 157.167 509.911 157.132C509.589 157.103 509.325 157.059 509.12 157V155.734C509.337 155.811 509.592 155.872 509.885 155.919C510.178 155.96 510.465 155.98 510.746 155.98C511.842 155.98 512.703 155.746 513.33 155.277C513.957 154.803 514.408 154.161 514.684 153.353C514.959 152.538 515.114 151.624 515.149 150.61H515.044C514.868 150.892 514.637 151.152 514.35 151.393C514.068 151.627 513.726 151.817 513.321 151.964C512.917 152.104 512.445 152.175 511.906 152.175C511.162 152.175 510.512 152.022 509.955 151.718C509.404 151.413 508.974 150.971 508.663 150.391C508.358 149.811 508.206 149.11 508.206 148.29C508.206 147.405 508.373 146.641 508.707 145.996C509.047 145.346 509.521 144.845 510.131 144.493C510.74 144.142 511.458 143.966 512.284 143.966C512.917 143.966 513.497 144.086 514.024 144.326C514.552 144.566 515.009 144.927 515.396 145.407C515.788 145.882 516.09 146.471 516.301 147.174C516.518 147.877 516.626 148.694 516.626 149.626ZM512.284 145.205C511.505 145.205 510.872 145.46 510.386 145.97C509.905 146.479 509.665 147.247 509.665 148.272C509.665 149.122 509.873 149.793 510.289 150.285C510.705 150.777 511.347 151.023 512.214 151.023C512.812 151.023 513.327 150.903 513.761 150.663C514.2 150.423 514.537 150.118 514.771 149.749C515.012 149.38 515.132 149.002 515.132 148.615C515.132 148.229 515.073 147.836 514.956 147.438C514.845 147.039 514.672 146.673 514.438 146.339C514.203 145.999 513.907 145.727 513.55 145.521C513.192 145.311 512.771 145.205 512.284 145.205ZM518.621 151.507C518.621 150.733 518.674 149.978 518.779 149.239C518.891 148.501 519.075 147.815 519.333 147.183C519.591 146.544 519.942 145.984 520.388 145.504C520.833 145.023 521.387 144.648 522.049 144.379C522.717 144.104 523.517 143.966 524.448 143.966C524.712 143.966 524.996 143.98 525.301 144.01C525.605 144.033 525.857 144.074 526.057 144.133V145.39C525.84 145.313 525.591 145.258 525.31 145.223C525.034 145.188 524.756 145.17 524.475 145.17C523.385 145.17 522.526 145.407 521.899 145.882C521.278 146.356 520.83 147.001 520.555 147.815C520.279 148.624 520.121 149.535 520.08 150.549H520.177C520.358 150.256 520.59 149.992 520.871 149.758C521.152 149.518 521.492 149.327 521.891 149.187C522.295 149.046 522.764 148.976 523.297 148.976C524.047 148.976 524.7 149.128 525.257 149.433C525.819 149.737 526.253 150.18 526.558 150.76C526.868 151.34 527.023 152.043 527.023 152.869C527.023 153.754 526.859 154.519 526.531 155.163C526.203 155.808 525.734 156.306 525.125 156.657C524.521 157.003 523.801 157.176 522.963 157.176C522.336 157.176 521.759 157.056 521.231 156.815C520.704 156.575 520.244 156.218 519.852 155.743C519.465 155.269 519.163 154.68 518.946 153.977C518.729 153.268 518.621 152.444 518.621 151.507ZM522.945 155.945C523.742 155.945 524.381 155.69 524.861 155.181C525.342 154.671 525.582 153.9 525.582 152.869C525.582 152.025 525.368 151.357 524.94 150.865C524.513 150.373 523.868 150.127 523.007 150.127C522.421 150.127 521.911 150.25 521.478 150.496C521.044 150.736 520.707 151.041 520.467 151.41C520.227 151.779 520.106 152.154 520.106 152.535C520.106 152.922 520.162 153.314 520.273 153.713C520.391 154.111 520.566 154.48 520.801 154.82C521.035 155.16 521.331 155.433 521.688 155.638C522.046 155.843 522.465 155.945 522.945 155.945Z" fill="black"/>
<path d="M655.133 143.966C655.877 143.966 656.536 144.083 657.11 144.317C657.685 144.552 658.133 144.897 658.455 145.354C658.783 145.806 658.947 146.362 658.947 147.024C658.947 147.546 658.833 148.003 658.604 148.396C658.382 148.782 658.08 149.122 657.699 149.415C657.318 149.702 656.896 149.96 656.434 150.188C656.984 150.44 657.479 150.725 657.919 151.041C658.364 151.357 658.716 151.729 658.974 152.157C659.231 152.585 659.36 153.092 659.36 153.678C659.36 154.398 659.185 155.022 658.833 155.55C658.487 156.071 658.001 156.473 657.374 156.754C656.747 157.035 656.012 157.176 655.168 157.176C654.26 157.176 653.486 157.041 652.848 156.771C652.215 156.496 651.731 156.104 651.397 155.594C651.069 155.078 650.905 154.46 650.905 153.739C650.905 153.147 651.031 152.635 651.283 152.201C651.535 151.762 651.869 151.384 652.285 151.067C652.701 150.751 653.155 150.484 653.647 150.268C653.22 150.033 652.827 149.767 652.47 149.468C652.118 149.169 651.837 148.82 651.626 148.422C651.421 148.018 651.318 147.549 651.318 147.016C651.318 146.365 651.482 145.814 651.811 145.363C652.145 144.906 652.599 144.561 653.173 144.326C653.753 144.086 654.406 143.966 655.133 143.966ZM652.338 153.748C652.338 154.404 652.569 154.946 653.032 155.374C653.495 155.796 654.195 156.007 655.133 156.007C656.023 156.007 656.712 155.796 657.198 155.374C657.685 154.946 657.928 154.387 657.928 153.695C657.928 153.268 657.816 152.893 657.594 152.57C657.371 152.242 657.055 151.949 656.645 151.691C656.234 151.434 655.751 151.199 655.194 150.988L654.878 150.874C654.339 151.097 653.879 151.346 653.498 151.621C653.123 151.891 652.836 152.198 652.637 152.544C652.438 152.89 652.338 153.291 652.338 153.748ZM655.115 145.161C654.424 145.161 653.858 145.328 653.419 145.662C652.979 145.99 652.76 146.465 652.76 147.086C652.76 147.531 652.865 147.909 653.076 148.22C653.293 148.524 653.586 148.788 653.955 149.011C654.324 149.228 654.737 149.43 655.194 149.617C655.64 149.43 656.035 149.225 656.381 149.002C656.727 148.773 656.999 148.504 657.198 148.193C657.397 147.883 657.497 147.511 657.497 147.077C657.497 146.456 657.277 145.981 656.838 145.653C656.404 145.325 655.83 145.161 655.115 145.161Z" fill="black"/>
<path d="M416.758 116V103.15H418.252V114.664H423.956V116H416.758Z" fill="black"/>
<path d="M410.319 157H408.896V147.895C408.896 147.549 408.896 147.253 408.896 147.007C408.901 146.755 408.907 146.526 408.913 146.321C408.925 146.11 408.939 145.896 408.957 145.68C408.775 145.867 408.605 146.028 408.447 146.163C408.289 146.292 408.093 146.453 407.858 146.646L406.391 147.824L405.626 146.831L409.106 144.15H410.319V157ZM424.25 154.021H422.325V157H420.901V154.021H414.688V152.79L420.805 144.08H422.325V152.702H424.25V154.021ZM420.901 152.702V148.501C420.901 148.179 420.904 147.889 420.91 147.631C420.916 147.367 420.925 147.124 420.937 146.901C420.948 146.673 420.957 146.456 420.963 146.251C420.975 146.046 420.983 145.844 420.989 145.645H420.919C420.808 145.879 420.679 146.128 420.532 146.392C420.392 146.649 420.248 146.881 420.102 147.086L416.138 152.702H420.901ZM433.979 150.558C433.979 151.601 433.9 152.532 433.742 153.353C433.584 154.173 433.335 154.867 432.995 155.436C432.655 156.004 432.216 156.438 431.677 156.736C431.138 157.029 430.49 157.176 429.734 157.176C428.779 157.176 427.988 156.915 427.361 156.394C426.74 155.872 426.274 155.119 425.964 154.135C425.659 153.145 425.507 151.952 425.507 150.558C425.507 149.187 425.645 148.009 425.92 147.024C426.201 146.034 426.652 145.275 427.273 144.748C427.895 144.215 428.715 143.948 429.734 143.948C430.701 143.948 431.498 144.212 432.125 144.739C432.752 145.261 433.218 146.017 433.522 147.007C433.827 147.991 433.979 149.175 433.979 150.558ZM426.975 150.558C426.975 151.753 427.065 152.749 427.247 153.546C427.429 154.343 427.722 154.94 428.126 155.339C428.536 155.731 429.072 155.928 429.734 155.928C430.396 155.928 430.93 155.731 431.334 155.339C431.744 154.946 432.04 154.352 432.222 153.555C432.409 152.758 432.503 151.759 432.503 150.558C432.503 149.38 432.412 148.396 432.23 147.604C432.049 146.808 431.756 146.21 431.352 145.812C430.947 145.407 430.408 145.205 429.734 145.205C429.061 145.205 428.521 145.407 428.117 145.812C427.713 146.21 427.42 146.808 427.238 147.604C427.062 148.396 426.975 149.38 426.975 150.558Z" fill="black"/>
<path d="M371.989 131L556.989 131" stroke="#DFDFDF" stroke-width="1.66667" stroke-linecap="square" stroke-linejoin="round"/>
<path d="M468 93L468 171" stroke="#DFDFDF" stroke-width="1.66667" stroke-linecap="square" stroke-linejoin="round"/>
<path d="M557 46L557 171" stroke="#DFDFDF" stroke-width="1.66667" stroke-linecap="square" stroke-linejoin="round"/>
<path d="M2 91L1111 91.0001" stroke="#DFDFDF" stroke-width="1.66667" stroke-linecap="square" stroke-linejoin="round"/>
<path d="M1.98926 171L1110.01 171" stroke="#DFDFDF" stroke-width="1.66667" stroke-linecap="square" stroke-linejoin="round"/>
<path d="M809.401 75H807.635L803.003 68.751L801.632 69.9814V75H800.137V62.1504H801.632V68.5576C801.966 68.1768 802.308 67.7988 802.66 67.4238C803.011 67.043 803.36 66.6592 803.706 66.2725L807.459 62.1504H809.208L804.093 67.7227L809.401 75ZM814.648 65.1914C815.469 65.1914 816.172 65.373 816.758 65.7363C817.344 66.0996 817.792 66.6094 818.102 67.2656C818.413 67.916 818.568 68.6777 818.568 69.5508V70.4561H811.915C811.932 71.5869 812.214 72.4482 812.759 73.04C813.303 73.6318 814.071 73.9277 815.061 73.9277C815.671 73.9277 816.21 73.8721 816.678 73.7607C817.147 73.6494 817.634 73.4854 818.137 73.2686V74.5518C817.651 74.7686 817.168 74.9268 816.687 75.0264C816.213 75.126 815.65 75.1758 815 75.1758C814.074 75.1758 813.265 74.9883 812.574 74.6133C811.888 74.2324 811.355 73.6758 810.974 72.9434C810.594 72.2109 810.403 71.3145 810.403 70.2539C810.403 69.2168 810.576 68.3203 810.922 67.5645C811.273 66.8027 811.765 66.2168 812.398 65.8066C813.037 65.3965 813.787 65.1914 814.648 65.1914ZM814.631 66.3867C813.851 66.3867 813.23 66.6416 812.767 67.1514C812.304 67.6611 812.029 68.373 811.941 69.2871H817.039C817.033 68.7129 816.942 68.209 816.766 67.7754C816.596 67.3359 816.336 66.9961 815.984 66.7559C815.633 66.5098 815.181 66.3867 814.631 66.3867ZM822.514 75H821.047V61.3242H822.514V75ZM829.203 65.209C830.351 65.209 831.204 65.4668 831.76 65.9824C832.317 66.498 832.595 67.3213 832.595 68.4521V75H831.532L831.251 73.5762H831.18C830.911 73.9277 830.63 74.2236 830.337 74.4639C830.044 74.6982 829.704 74.877 829.317 75C828.936 75.1172 828.468 75.1758 827.911 75.1758C827.325 75.1758 826.803 75.0732 826.346 74.8682C825.895 74.6631 825.538 74.3525 825.274 73.9365C825.016 73.5205 824.887 72.9932 824.887 72.3545C824.887 71.3936 825.268 70.6553 826.03 70.1396C826.792 69.624 827.952 69.3428 829.51 69.2959L831.172 69.2256V68.6367C831.172 67.8047 830.993 67.2217 830.635 66.8877C830.278 66.5537 829.774 66.3867 829.124 66.3867C828.62 66.3867 828.139 66.46 827.682 66.6064C827.225 66.7529 826.792 66.9258 826.382 67.125L825.933 66.0176C826.367 65.7949 826.865 65.6045 827.427 65.4463C827.99 65.2881 828.582 65.209 829.203 65.209ZM831.154 70.2539L829.686 70.3154C828.485 70.3623 827.638 70.5586 827.146 70.9043C826.654 71.25 826.408 71.7393 826.408 72.3721C826.408 72.9229 826.575 73.3301 826.909 73.5938C827.243 73.8574 827.685 73.9893 828.236 73.9893C829.092 73.9893 829.792 73.752 830.337 73.2773C830.882 72.8027 831.154 72.0908 831.154 71.1416V70.2539ZM841.833 72.3633C841.833 72.9785 841.677 73.4971 841.367 73.9189C841.062 74.335 840.623 74.6484 840.049 74.8594C839.48 75.0703 838.801 75.1758 838.01 75.1758C837.336 75.1758 836.753 75.123 836.26 75.0176C835.768 74.9121 835.338 74.7627 834.969 74.5693V73.2246C835.361 73.418 835.83 73.5938 836.375 73.752C836.92 73.9102 837.476 73.9893 838.045 73.9893C838.877 73.9893 839.48 73.8545 839.855 73.585C840.23 73.3154 840.418 72.9492 840.418 72.4863C840.418 72.2227 840.342 71.9912 840.189 71.792C840.043 71.5869 839.794 71.3906 839.442 71.2031C839.091 71.0098 838.604 70.7988 837.983 70.5703C837.368 70.3359 836.835 70.1045 836.384 69.876C835.938 69.6416 835.593 69.3574 835.346 69.0234C835.106 68.6895 834.986 68.2559 834.986 67.7227C834.986 66.9082 835.314 66.2842 835.97 65.8506C836.633 65.4111 837.5 65.1914 838.572 65.1914C839.152 65.1914 839.694 65.25 840.198 65.3672C840.708 65.4785 841.182 65.6309 841.622 65.8242L841.13 66.9932C840.731 66.8232 840.306 66.6797 839.855 66.5625C839.404 66.4453 838.944 66.3867 838.475 66.3867C837.802 66.3867 837.283 66.498 836.92 66.7207C836.562 66.9434 836.384 67.248 836.384 67.6348C836.384 67.9336 836.466 68.1797 836.63 68.373C836.8 68.5664 837.069 68.748 837.438 68.918C837.807 69.0879 838.294 69.2871 838.897 69.5156C839.501 69.7383 840.022 69.9697 840.462 70.21C840.901 70.4443 841.238 70.7314 841.472 71.0713C841.713 71.4053 841.833 71.8359 841.833 72.3633ZM849.075 75V62.1504H850.569V75H849.075ZM862.68 75H860.984L857.512 69.3398L853.988 75H852.397L856.677 68.3027L852.696 62.1504H854.357L857.565 67.2744L860.791 62.1504H862.373L858.4 68.2764L862.68 75Z" fill="black"/>
<path d="M951.903 77.3838C951.61 77.3838 951.353 77.3633 951.13 77.3223C950.907 77.2812 950.717 77.2256 950.559 77.1553V75.8809C950.746 75.9395 950.948 75.9834 951.165 76.0127C951.382 76.0479 951.616 76.0654 951.868 76.0654C952.196 76.0654 952.498 76.001 952.773 75.8721C953.049 75.7432 953.269 75.5234 953.433 75.2129C953.597 74.9023 953.679 74.4746 953.679 73.9297V61.1504H955.182V73.8154C955.182 74.6182 955.047 75.2832 954.777 75.8105C954.514 76.3379 954.136 76.7305 953.644 76.9883C953.157 77.252 952.577 77.3838 951.903 77.3838ZM966.326 64.3672V74H965.131L964.92 72.6465H964.841C964.642 72.9805 964.384 73.2617 964.067 73.4902C963.751 73.7188 963.394 73.8887 962.995 74C962.603 74.1172 962.184 74.1758 961.738 74.1758C960.977 74.1758 960.338 74.0527 959.822 73.8066C959.307 73.5605 958.917 73.1797 958.653 72.6641C958.396 72.1484 958.267 71.4863 958.267 70.6777V64.3672H959.743V70.5723C959.743 71.375 959.925 71.9756 960.288 72.374C960.651 72.7666 961.205 72.9629 961.949 72.9629C962.664 72.9629 963.232 72.8281 963.654 72.5586C964.082 72.2891 964.39 71.8936 964.577 71.3721C964.765 70.8447 964.858 70.2002 964.858 69.4385V64.3672H966.326ZM979.87 64.1914C980.931 64.1914 981.73 64.4697 982.27 65.0264C982.809 65.5771 983.078 66.4648 983.078 67.6895V74H981.637V67.7598C981.637 66.9805 981.467 66.3975 981.127 66.0107C980.793 65.6182 980.295 65.4219 979.633 65.4219C978.701 65.4219 978.024 65.6914 977.603 66.2305C977.181 66.7695 976.97 67.5635 976.97 68.6123V74H975.52V67.7598C975.52 67.2383 975.443 66.8047 975.291 66.459C975.145 66.1133 974.922 65.8555 974.623 65.6855C974.33 65.5098 973.958 65.4219 973.507 65.4219C972.868 65.4219 972.355 65.5537 971.969 65.8174C971.582 66.0811 971.301 66.4736 971.125 66.9951C970.955 67.5107 970.87 68.1465 970.87 68.9023V74H969.411V64.3672H970.589L970.809 65.7295H970.888C971.081 65.3955 971.324 65.1143 971.617 64.8857C971.91 64.6572 972.238 64.4844 972.602 64.3672C972.965 64.25 973.352 64.1914 973.762 64.1914C974.494 64.1914 975.106 64.3291 975.599 64.6045C976.097 64.874 976.457 65.2871 976.68 65.8438H976.759C977.075 65.2871 977.509 64.874 978.06 64.6045C978.61 64.3291 979.214 64.1914 979.87 64.1914ZM987.543 74H986.075V60.3242H987.543V74ZM994.231 64.209C995.38 64.209 996.232 64.4668 996.789 64.9824C997.346 65.498 997.624 66.3213 997.624 67.4521V74H996.561L996.279 72.5762H996.209C995.939 72.9277 995.658 73.2236 995.365 73.4639C995.072 73.6982 994.732 73.877 994.346 74C993.965 74.1172 993.496 74.1758 992.939 74.1758C992.354 74.1758 991.832 74.0732 991.375 73.8682C990.924 73.6631 990.566 73.3525 990.303 72.9365C990.045 72.5205 989.916 71.9932 989.916 71.3545C989.916 70.3936 990.297 69.6553 991.059 69.1396C991.82 68.624 992.98 68.3428 994.539 68.2959L996.2 68.2256V67.6367C996.2 66.8047 996.021 66.2217 995.664 65.8877C995.307 65.5537 994.803 65.3867 994.152 65.3867C993.648 65.3867 993.168 65.46 992.711 65.6064C992.254 65.7529 991.82 65.9258 991.41 66.125L990.962 65.0176C991.396 64.7949 991.894 64.6045 992.456 64.4463C993.019 64.2881 993.61 64.209 994.231 64.209ZM996.183 69.2539L994.715 69.3154C993.514 69.3623 992.667 69.5586 992.175 69.9043C991.683 70.25 991.437 70.7393 991.437 71.3721C991.437 71.9229 991.604 72.3301 991.938 72.5938C992.271 72.8574 992.714 72.9893 993.265 72.9893C994.12 72.9893 994.82 72.752 995.365 72.2773C995.91 71.8027 996.183 71.0908 996.183 70.1416V69.2539ZM1002.09 60.3242V64.4111C1002.09 64.6455 1002.08 64.8828 1002.07 65.123C1002.06 65.3574 1002.04 65.5742 1002.01 65.7734H1002.11C1002.31 65.4336 1002.56 65.1494 1002.86 64.9209C1003.17 64.6865 1003.52 64.5107 1003.92 64.3936C1004.31 64.2705 1004.73 64.209 1005.17 64.209C1005.94 64.209 1006.58 64.332 1007.1 64.5781C1007.62 64.8242 1008.01 65.2051 1008.27 65.7207C1008.53 66.2363 1008.66 66.9043 1008.66 67.7246V74H1007.22V67.8213C1007.22 67.0186 1007.04 66.418 1006.67 66.0195C1006.3 65.6211 1005.75 65.4219 1004.99 65.4219C1004.27 65.4219 1003.7 65.5596 1003.28 65.835C1002.85 66.1045 1002.55 66.5029 1002.36 67.0303C1002.18 67.5576 1002.09 68.2021 1002.09 68.9639V74H1000.63V60.3242H1002.09ZM1020.04 61.1504C1021.09 61.1504 1021.96 61.2822 1022.65 61.5459C1023.34 61.8037 1023.85 62.1992 1024.19 62.7324C1024.53 63.2656 1024.7 63.9453 1024.7 64.7715C1024.7 65.4512 1024.58 66.0195 1024.33 66.4766C1024.09 66.9277 1023.77 67.2939 1023.37 67.5752C1022.97 67.8564 1022.54 68.0732 1022.09 68.2256L1025.62 74H1023.88L1020.73 68.6387H1018.06V74H1016.56V61.1504H1020.04ZM1019.95 62.4424H1018.06V67.373H1020.1C1021.15 67.373 1021.92 67.1592 1022.41 66.7314C1022.91 66.3037 1023.16 65.6738 1023.16 64.8418C1023.16 63.9688 1022.89 63.3506 1022.37 62.9873C1021.84 62.624 1021.04 62.4424 1019.95 62.4424ZM1035.41 64.3672V74H1034.21L1034 72.6465H1033.92C1033.72 72.9805 1033.47 73.2617 1033.15 73.4902C1032.83 73.7188 1032.48 73.8887 1032.08 74C1031.68 74.1172 1031.27 74.1758 1030.82 74.1758C1030.06 74.1758 1029.42 74.0527 1028.9 73.8066C1028.39 73.5605 1028 73.1797 1027.74 72.6641C1027.48 72.1484 1027.35 71.4863 1027.35 70.6777V64.3672H1028.83V70.5723C1028.83 71.375 1029.01 71.9756 1029.37 72.374C1029.73 72.7666 1030.29 72.9629 1031.03 72.9629C1031.75 72.9629 1032.31 72.8281 1032.74 72.5586C1033.16 72.2891 1033.47 71.8936 1033.66 71.3721C1033.85 70.8447 1033.94 70.2002 1033.94 69.4385V64.3672H1035.41ZM1048.95 64.1914C1050.01 64.1914 1050.81 64.4697 1051.35 65.0264C1051.89 65.5771 1052.16 66.4648 1052.16 67.6895V74H1050.72V67.7598C1050.72 66.9805 1050.55 66.3975 1050.21 66.0107C1049.88 65.6182 1049.38 65.4219 1048.71 65.4219C1047.78 65.4219 1047.11 65.6914 1046.68 66.2305C1046.26 66.7695 1046.05 67.5635 1046.05 68.6123V74H1044.6V67.7598C1044.6 67.2383 1044.53 66.8047 1044.37 66.459C1044.23 66.1133 1044 65.8555 1043.71 65.6855C1043.41 65.5098 1043.04 65.4219 1042.59 65.4219C1041.95 65.4219 1041.44 65.5537 1041.05 65.8174C1040.66 66.0811 1040.38 66.4736 1040.21 66.9951C1040.04 67.5107 1039.95 68.1465 1039.95 68.9023V74H1038.49V64.3672H1039.67L1039.89 65.7295H1039.97C1040.16 65.3955 1040.41 65.1143 1040.7 64.8857C1040.99 64.6572 1041.32 64.4844 1041.68 64.3672C1042.05 64.25 1042.43 64.1914 1042.84 64.1914C1043.58 64.1914 1044.19 64.3291 1044.68 64.6045C1045.18 64.874 1045.54 65.2871 1045.76 65.8438H1045.84C1046.16 65.2871 1046.59 64.874 1047.14 64.6045C1047.69 64.3291 1048.3 64.1914 1048.95 64.1914ZM1056.62 60.3242V63.7432C1056.62 64.1357 1056.6 64.5166 1056.58 64.8857C1056.56 65.2549 1056.55 65.542 1056.54 65.7471H1056.62C1056.88 65.3135 1057.26 64.9473 1057.76 64.6484C1058.26 64.3496 1058.89 64.2002 1059.67 64.2002C1060.87 64.2002 1061.83 64.6191 1062.55 65.457C1063.27 66.2891 1063.63 67.5283 1063.63 69.1748C1063.63 70.2588 1063.47 71.1729 1063.14 71.917C1062.81 72.6611 1062.35 73.2236 1061.75 73.6045C1061.15 73.9854 1060.45 74.1758 1059.63 74.1758C1058.87 74.1758 1058.24 74.0352 1057.75 73.7539C1057.26 73.4668 1056.89 73.1182 1056.62 72.708H1056.51L1056.21 74H1055.16V60.3242H1056.62ZM1059.43 65.4219C1058.73 65.4219 1058.18 65.5596 1057.77 65.835C1057.36 66.1045 1057.06 66.5146 1056.88 67.0654C1056.7 67.6104 1056.62 68.3018 1056.62 69.1396V69.2188C1056.62 70.4316 1056.82 71.3604 1057.22 72.0049C1057.63 72.6436 1058.36 72.9629 1059.43 72.9629C1060.33 72.9629 1061 72.6348 1061.44 71.9785C1061.89 71.3223 1062.12 70.3848 1062.12 69.166C1062.12 67.9238 1061.9 66.9893 1061.45 66.3623C1061.01 65.7354 1060.34 65.4219 1059.43 65.4219ZM1069.89 64.1914C1070.71 64.1914 1071.41 64.373 1072 64.7363C1072.58 65.0996 1073.03 65.6094 1073.34 66.2656C1073.65 66.916 1073.81 67.6777 1073.81 68.5508V69.4561H1067.15C1067.17 70.5869 1067.45 71.4482 1068 72.04C1068.54 72.6318 1069.31 72.9277 1070.3 72.9277C1070.91 72.9277 1071.45 72.8721 1071.92 72.7607C1072.39 72.6494 1072.87 72.4854 1073.38 72.2686V73.5518C1072.89 73.7686 1072.41 73.9268 1071.93 74.0264C1071.45 74.126 1070.89 74.1758 1070.24 74.1758C1069.31 74.1758 1068.5 73.9883 1067.81 73.6133C1067.13 73.2324 1066.59 72.6758 1066.21 71.9434C1065.83 71.2109 1065.64 70.3145 1065.64 69.2539C1065.64 68.2168 1065.82 67.3203 1066.16 66.5645C1066.51 65.8027 1067 65.2168 1067.64 64.8066C1068.28 64.3965 1069.03 64.1914 1069.89 64.1914ZM1069.87 65.3867C1069.09 65.3867 1068.47 65.6416 1068.01 66.1514C1067.54 66.6611 1067.27 67.373 1067.18 68.2871H1072.28C1072.27 67.7129 1072.18 67.209 1072.01 66.7754C1071.84 66.3359 1071.58 65.9961 1071.22 65.7559C1070.87 65.5098 1070.42 65.3867 1069.87 65.3867ZM1077.75 74H1076.29V60.3242H1077.75V74Z" fill="black"/>
<path d="M882.115 103.15C883.773 103.15 884.983 103.476 885.745 104.126C886.513 104.771 886.896 105.696 886.896 106.903C886.896 107.448 886.806 107.967 886.624 108.459C886.448 108.945 886.161 109.376 885.763 109.751C885.364 110.12 884.84 110.413 884.189 110.63C883.545 110.841 882.754 110.946 881.816 110.946H880.252V116H878.758V103.15H882.115ZM881.975 104.425H880.252V109.663H881.649C882.47 109.663 883.152 109.575 883.697 109.399C884.248 109.224 884.661 108.939 884.937 108.547C885.212 108.148 885.35 107.621 885.35 106.965C885.35 106.109 885.077 105.474 884.532 105.058C883.987 104.636 883.135 104.425 881.975 104.425Z" fill="black"/>
<path d="M873.319 157H871.896V147.895C871.896 147.549 871.896 147.253 871.896 147.007C871.901 146.755 871.907 146.526 871.913 146.321C871.925 146.11 871.939 145.896 871.957 145.68C871.775 145.867 871.605 146.028 871.447 146.163C871.289 146.292 871.093 146.453 870.858 146.646L869.391 147.824L868.626 146.831L872.106 144.15H873.319V157ZM886.626 149.626C886.626 150.405 886.57 151.164 886.459 151.902C886.354 152.641 886.169 153.329 885.905 153.968C885.647 154.606 885.296 155.166 884.851 155.646C884.405 156.127 883.846 156.505 883.172 156.78C882.504 157.05 881.704 157.185 880.772 157.185C880.521 157.185 880.233 157.167 879.911 157.132C879.589 157.103 879.325 157.059 879.12 157V155.734C879.337 155.811 879.592 155.872 879.885 155.919C880.178 155.96 880.465 155.98 880.746 155.98C881.842 155.98 882.703 155.746 883.33 155.277C883.957 154.803 884.408 154.161 884.684 153.353C884.959 152.538 885.114 151.624 885.149 150.61H885.044C884.868 150.892 884.637 151.152 884.35 151.393C884.068 151.627 883.726 151.817 883.321 151.964C882.917 152.104 882.445 152.175 881.906 152.175C881.162 152.175 880.512 152.022 879.955 151.718C879.404 151.413 878.974 150.971 878.663 150.391C878.358 149.811 878.206 149.11 878.206 148.29C878.206 147.405 878.373 146.641 878.707 145.996C879.047 145.346 879.521 144.845 880.131 144.493C880.74 144.142 881.458 143.966 882.284 143.966C882.917 143.966 883.497 144.086 884.024 144.326C884.552 144.566 885.009 144.927 885.396 145.407C885.788 145.882 886.09 146.471 886.301 147.174C886.518 147.877 886.626 148.694 886.626 149.626ZM882.284 145.205C881.505 145.205 880.872 145.46 880.386 145.97C879.905 146.479 879.665 147.247 879.665 148.272C879.665 149.122 879.873 149.793 880.289 150.285C880.705 150.777 881.347 151.023 882.214 151.023C882.812 151.023 883.327 150.903 883.761 150.663C884.2 150.423 884.537 150.118 884.771 149.749C885.012 149.38 885.132 149.002 885.132 148.615C885.132 148.229 885.073 147.836 884.956 147.438C884.845 147.039 884.672 146.673 884.438 146.339C884.203 145.999 883.907 145.727 883.55 145.521C883.192 145.311 882.771 145.205 882.284 145.205ZM888.621 151.507C888.621 150.733 888.674 149.978 888.779 149.239C888.891 148.501 889.075 147.815 889.333 147.183C889.591 146.544 889.942 145.984 890.388 145.504C890.833 145.023 891.387 144.648 892.049 144.379C892.717 144.104 893.517 143.966 894.448 143.966C894.712 143.966 894.996 143.98 895.301 144.01C895.605 144.033 895.857 144.074 896.057 144.133V145.39C895.84 145.313 895.591 145.258 895.31 145.223C895.034 145.188 894.756 145.17 894.475 145.17C893.385 145.17 892.526 145.407 891.899 145.882C891.278 146.356 890.83 147.001 890.555 147.815C890.279 148.624 890.121 149.535 890.08 150.549H890.177C890.358 150.256 890.59 149.992 890.871 149.758C891.152 149.518 891.492 149.327 891.891 149.187C892.295 149.046 892.764 148.976 893.297 148.976C894.047 148.976 894.7 149.128 895.257 149.433C895.819 149.737 896.253 150.18 896.558 150.76C896.868 151.34 897.023 152.043 897.023 152.869C897.023 153.754 896.859 154.519 896.531 155.163C896.203 155.808 895.734 156.306 895.125 156.657C894.521 157.003 893.801 157.176 892.963 157.176C892.336 157.176 891.759 157.056 891.231 156.815C890.704 156.575 890.244 156.218 889.852 155.743C889.465 155.269 889.163 154.68 888.946 153.977C888.729 153.268 888.621 152.444 888.621 151.507ZM892.945 155.945C893.742 155.945 894.381 155.69 894.861 155.181C895.342 154.671 895.582 153.9 895.582 152.869C895.582 152.025 895.368 151.357 894.94 150.865C894.513 150.373 893.868 150.127 893.007 150.127C892.421 150.127 891.911 150.25 891.478 150.496C891.044 150.736 890.707 151.041 890.467 151.41C890.227 151.779 890.106 152.154 890.106 152.535C890.106 152.922 890.162 153.314 890.273 153.713C890.391 154.111 890.566 154.48 890.801 154.82C891.035 155.16 891.331 155.433 891.688 155.638C892.046 155.843 892.465 155.945 892.945 155.945Z" fill="black"/>
<path d="M1025.13 143.966C1025.88 143.966 1026.54 144.083 1027.11 144.317C1027.68 144.552 1028.13 144.897 1028.46 145.354C1028.78 145.806 1028.95 146.362 1028.95 147.024C1028.95 147.546 1028.83 148.003 1028.6 148.396C1028.38 148.782 1028.08 149.122 1027.7 149.415C1027.32 149.702 1026.9 149.96 1026.43 150.188C1026.98 150.44 1027.48 150.725 1027.92 151.041C1028.36 151.357 1028.72 151.729 1028.97 152.157C1029.23 152.585 1029.36 153.092 1029.36 153.678C1029.36 154.398 1029.18 155.022 1028.83 155.55C1028.49 156.071 1028 156.473 1027.37 156.754C1026.75 157.035 1026.01 157.176 1025.17 157.176C1024.26 157.176 1023.49 157.041 1022.85 156.771C1022.21 156.496 1021.73 156.104 1021.4 155.594C1021.07 155.078 1020.91 154.46 1020.91 153.739C1020.91 153.147 1021.03 152.635 1021.28 152.201C1021.54 151.762 1021.87 151.384 1022.29 151.067C1022.7 150.751 1023.16 150.484 1023.65 150.268C1023.22 150.033 1022.83 149.767 1022.47 149.468C1022.12 149.169 1021.84 148.82 1021.63 148.422C1021.42 148.018 1021.32 147.549 1021.32 147.016C1021.32 146.365 1021.48 145.814 1021.81 145.363C1022.14 144.906 1022.6 144.561 1023.17 144.326C1023.75 144.086 1024.41 143.966 1025.13 143.966ZM1022.34 153.748C1022.34 154.404 1022.57 154.946 1023.03 155.374C1023.5 155.796 1024.2 156.007 1025.13 156.007C1026.02 156.007 1026.71 155.796 1027.2 155.374C1027.68 154.946 1027.93 154.387 1027.93 153.695C1027.93 153.268 1027.82 152.893 1027.59 152.57C1027.37 152.242 1027.05 151.949 1026.64 151.691C1026.23 151.434 1025.75 151.199 1025.19 150.988L1024.88 150.874C1024.34 151.097 1023.88 151.346 1023.5 151.621C1023.12 151.891 1022.84 152.198 1022.64 152.544C1022.44 152.89 1022.34 153.291 1022.34 153.748ZM1025.12 145.161C1024.42 145.161 1023.86 145.328 1023.42 145.662C1022.98 145.99 1022.76 146.465 1022.76 147.086C1022.76 147.531 1022.87 147.909 1023.08 148.22C1023.29 148.524 1023.59 148.788 1023.96 149.011C1024.32 149.228 1024.74 149.43 1025.19 149.617C1025.64 149.43 1026.04 149.225 1026.38 149.002C1026.73 148.773 1027 148.504 1027.2 148.193C1027.4 147.883 1027.5 147.511 1027.5 147.077C1027.5 146.456 1027.28 145.981 1026.84 145.653C1026.4 145.325 1025.83 145.161 1025.12 145.161Z" fill="black"/>
<path d="M786.758 116V103.15H788.252V114.664H793.956V116H786.758Z" fill="black"/>
<path d="M780.319 157H778.896V147.895C778.896 147.549 778.896 147.253 778.896 147.007C778.901 146.755 778.907 146.526 778.913 146.321C778.925 146.11 778.939 145.896 778.957 145.68C778.775 145.867 778.605 146.028 778.447 146.163C778.289 146.292 778.093 146.453 777.858 146.646L776.391 147.824L775.626 146.831L779.106 144.15H780.319V157ZM794.25 154.021H792.325V157H790.901V154.021H784.688V152.79L790.805 144.08H792.325V152.702H794.25V154.021ZM790.901 152.702V148.501C790.901 148.179 790.904 147.889 790.91 147.631C790.916 147.367 790.925 147.124 790.937 146.901C790.948 146.673 790.957 146.456 790.963 146.251C790.975 146.046 790.983 145.844 790.989 145.645H790.919C790.808 145.879 790.679 146.128 790.532 146.392C790.392 146.649 790.248 146.881 790.102 147.086L786.138 152.702H790.901ZM803.979 150.558C803.979 151.601 803.9 152.532 803.742 153.353C803.584 154.173 803.335 154.867 802.995 155.436C802.655 156.004 802.216 156.438 801.677 156.736C801.138 157.029 800.49 157.176 799.734 157.176C798.779 157.176 797.988 156.915 797.361 156.394C796.74 155.872 796.274 155.119 795.964 154.135C795.659 153.145 795.507 151.952 795.507 150.558C795.507 149.187 795.645 148.009 795.92 147.024C796.201 146.034 796.652 145.275 797.273 144.748C797.895 144.215 798.715 143.948 799.734 143.948C800.701 143.948 801.498 144.212 802.125 144.739C802.752 145.261 803.218 146.017 803.522 147.007C803.827 147.991 803.979 149.175 803.979 150.558ZM796.975 150.558C796.975 151.753 797.065 152.749 797.247 153.546C797.429 154.343 797.722 154.94 798.126 155.339C798.536 155.731 799.072 155.928 799.734 155.928C800.396 155.928 800.93 155.731 801.334 155.339C801.744 154.946 802.04 154.352 802.222 153.555C802.409 152.758 802.503 151.759 802.503 150.558C802.503 149.38 802.412 148.396 802.23 147.604C802.049 146.808 801.756 146.21 801.352 145.812C800.947 145.407 800.408 145.205 799.734 145.205C799.061 145.205 798.521 145.407 798.117 145.812C797.713 146.21 797.42 146.808 797.238 147.604C797.062 148.396 796.975 149.38 796.975 150.558Z" fill="black"/>
<path d="M741.989 131L926.989 131" stroke="#DFDFDF" stroke-width="1.66667" stroke-linecap="square" stroke-linejoin="round"/>
<path d="M838 95V171" stroke="#DFDFDF" stroke-width="1.66667" stroke-linecap="square" stroke-linejoin="round"/>
<path d="M927 46L927 171" stroke="#DFDFDF" stroke-width="1.66667" stroke-linecap="square" stroke-linejoin="round"/>
<path d="M371 46L371 171" stroke="#DFDFDF" stroke-width="1.66667" stroke-linecap="square" stroke-linejoin="round"/>
<path d="M1 47L1.00001 171" stroke="#DFDFDF" stroke-width="1.66667" stroke-linecap="square" stroke-linejoin="round"/>
<path d="M741 46L741 171" stroke="#DFDFDF" stroke-width="1.66667" stroke-linecap="square" stroke-linejoin="round"/>
<path d="M1111 1L1111 171" stroke="#DFDFDF" stroke-width="1.66667" stroke-linecap="square" stroke-linejoin="round"/>
</svg>
